<mxfile host="65bd71144e">
    <diagram id="z9d9O9BV1oLTM0DgJ9GB" name="Page-1">
        <mxGraphModel dx="1576" dy="1617" grid="1" gridSize="10" guides="1" tooltips="1" connect="1" arrows="1" fold="1" page="1" pageScale="1" pageWidth="827" pageHeight="1169" math="0" shadow="0">
            <root>
                <mxCell id="0"/>
                <mxCell id="1" parent="0"/>
                <mxCell id="26" value="Test engineers" style="swimlane;whiteSpace=wrap;html=1;startSize=30;fillStyle=solid;swimlaneFillColor=default;" parent="1" vertex="1">
                    <mxGeometry x="910" y="200" width="200" height="10000" as="geometry"/>
                </mxCell>
                <mxCell id="27" value="Come up with &quot;outside of the box&quot; test case scenarios on a casy-by-case basis, p16" style="rounded=1;whiteSpace=wrap;html=1;absoluteArcSize=1;arcSize=14;strokeWidth=2;" parent="26" vertex="1">
                    <mxGeometry x="40" y="840.86" width="100" height="100" as="geometry"/>
                </mxCell>
                <mxCell id="43" value="Black-box/ penetration/network &amp;amp; operating system testing, p17, p20, p41" style="rounded=1;whiteSpace=wrap;html=1;absoluteArcSize=1;arcSize=14;strokeWidth=2;" parent="26" vertex="1">
                    <mxGeometry x="40" y="4420" width="130" height="64" as="geometry"/>
                </mxCell>
                <mxCell id="111" style="edgeStyle=none;html=1;dashed=1;endArrow=none;endFill=0;startArrow=open;startFill=0;entryX=0.602;entryY=0.995;entryDx=0;entryDy=0;entryPerimeter=0;" parent="26" source="112" target="43" edge="1">
                    <mxGeometry relative="1" as="geometry">
                        <mxPoint x="92" y="3038.86" as="targetPoint"/>
                    </mxGeometry>
                </mxCell>
                <mxCell id="112" value="&quot; Penetration testing has been a common technique used to test network security for decades. /.../ testing a system or application&lt;br&gt; remotely to find security vulnerabilities, without knowing the inner workings of the target itself /.../  Typically, the penetration&lt;br&gt; test team is able to access an application as if they were users. &quot;, p20, &quot;penetration testing focuses on identifying vulnerabilities in the application during testing or&lt;br&gt; validation&quot;, p24, &quot; The integration system test environment is also the first environment where testers can simulate real attack scenarios&quot;, p31, &quot;while penetration testing has a role to play, it is generally inefficient at finding bugs and relies excessively on&lt;br&gt; the skill of the tester. It should only be considered as an implementation technique, or to raise awareness of production&lt;br&gt; issues.&quot;, p36, &quot; document what code paths were discovered and tested&quot;, p74" style="shape=note;whiteSpace=wrap;html=1;backgroundOutline=1;darkOpacity=0.05;align=left;fontSize=6;size=13;" parent="26" vertex="1">
                    <mxGeometry x="15" y="4502" width="170" height="140" as="geometry"/>
                </mxCell>
                <mxCell id="186" value="White box / Source code analysis, p29" style="rounded=1;whiteSpace=wrap;html=1;absoluteArcSize=1;arcSize=14;strokeWidth=2;" parent="26" vertex="1">
                    <mxGeometry x="112.5" y="4780" width="80" height="50" as="geometry"/>
                </mxCell>
                <mxCell id="187" style="edgeStyle=none;html=1;dashed=1;endArrow=none;endFill=0;startArrow=open;startFill=0;" parent="26" source="188" target="186" edge="1">
                    <mxGeometry relative="1" as="geometry">
                        <mxPoint x="118" y="4210" as="targetPoint"/>
                    </mxGeometry>
                </mxCell>
                <mxCell id="188" value="&quot; After components and code changes are tested by developers and checked in to the application build, the most likely next step in the software development process workflow is to perform tests on the application as a whole entity. This&lt;br&gt; level of testing is usually referred to as integrated test and system level test. When security tests are part of these testing&lt;br&gt; activities, they can be used to validate both the security functionality of the application as a whole, as well as the&lt;br&gt; exposure to application level vulnerabilities. These security tests on the application include both white-box testing,&lt;br&gt; such as source code analysis, and black-box testing, such as penetration testing. Tests can also include gray-box&lt;br&gt; testing /.../  During this phase, it is possible for&lt;br&gt; security testers to determine whether vulnerabilities can be exploited. These include common web application&lt;br&gt; vulnerabilities, as well as security issues that have been identified earlier in the SDLC with other activities such as&lt;br&gt; threat modeling, source code analysis, and secure code reviews.&quot;, p29, &quot;where there are external sources from which the application receives data and processes it /.../  a meeting with the application&lt;br/&gt; developers could identify any functions that would accept or expect user input and how they are formatted. For&lt;br/&gt; example, the developer could help in understanding how to formulate a correct SOAP request&quot;, p72" style="shape=note;whiteSpace=wrap;html=1;backgroundOutline=1;darkOpacity=0.05;align=left;fontSize=6;size=13;" parent="26" vertex="1">
                    <mxGeometry x="17.5" y="4848" width="170" height="182" as="geometry"/>
                </mxCell>
                <mxCell id="191" value="Gray box testing, p29" style="rounded=1;whiteSpace=wrap;html=1;absoluteArcSize=1;arcSize=14;strokeWidth=2;" parent="26" vertex="1">
                    <mxGeometry x="17.5" y="4780" width="85" height="50" as="geometry"/>
                </mxCell>
                <mxCell id="193" style="edgeStyle=none;html=1;dashed=1;endArrow=none;endFill=0;startArrow=open;startFill=0;exitX=0.354;exitY=0.01;exitDx=0;exitDy=0;exitPerimeter=0;entryX=0.581;entryY=1.023;entryDx=0;entryDy=0;entryPerimeter=0;" parent="26" source="188" target="191" edge="1">
                    <mxGeometry relative="1" as="geometry">
                        <mxPoint x="150" y="4190" as="targetPoint"/>
                        <mxPoint x="133" y="4238" as="sourcePoint"/>
                    </mxGeometry>
                </mxCell>
                <mxCell id="195" value="Validates security requirements, p29" style="rounded=1;whiteSpace=wrap;html=1;absoluteArcSize=1;arcSize=14;strokeWidth=2;" parent="26" vertex="1">
                    <mxGeometry x="40" y="4370" width="130" height="42" as="geometry"/>
                </mxCell>
                <mxCell id="225" value="Release system to operational environment, p29" style="rounded=1;whiteSpace=wrap;html=1;absoluteArcSize=1;arcSize=14;strokeWidth=2;" parent="26" vertex="1">
                    <mxGeometry x="15" y="5036" width="180" height="50" as="geometry"/>
                </mxCell>
                <mxCell id="414" style="edgeStyle=none;html=1;entryX=0.5;entryY=0;entryDx=0;entryDy=0;" parent="26" source="413" target="416" edge="1">
                    <mxGeometry relative="1" as="geometry">
                        <mxPoint x="100" y="5430" as="targetPoint"/>
                    </mxGeometry>
                </mxCell>
                <mxCell id="413" value="Participate in code walk-through, p38" style="rounded=1;whiteSpace=wrap;html=1;" parent="26" vertex="1">
                    <mxGeometry x="40" y="5310" width="120" height="60" as="geometry"/>
                </mxCell>
                <mxCell id="416" value="Examine code for security defects / static code review, p38" style="rounded=1;whiteSpace=wrap;html=1;" parent="26" vertex="1">
                    <mxGeometry x="40" y="5410" width="120" height="60" as="geometry"/>
                </mxCell>
                <mxCell id="417" style="edgeStyle=none;html=1;dashed=1;endArrow=none;endFill=0;startArrow=open;startFill=0;exitX=0;exitY=0;exitDx=78.5;exitDy=0;exitPerimeter=0;entryX=0.336;entryY=0.983;entryDx=0;entryDy=0;entryPerimeter=0;" parent="26" source="418" target="416" edge="1">
                    <mxGeometry relative="1" as="geometry">
                        <mxPoint x="84" y="5470" as="targetPoint"/>
                    </mxGeometry>
                </mxCell>
                <mxCell id="418" value="&quot; Static code reviews validate the code against a set of checklists, including:&lt;br/&gt; Business requirements for availability, confidentiality, and integrity;&lt;br/&gt; OWASP Guide or Top 10 Checklists for technical exposures (depending on the depth of the review);&lt;br/&gt; Specific issues relating to the language or framework in use, such as the Scarlet paper for PHP or Microsoft Secure&lt;br/&gt; Coding checklists for ASP.NET; and&lt;br/&gt; Any industry-specific requirements, such as Sarbanes-Oxley 404, COPPA, ISO/IEC 27002, APRA, HIPAA, Visa&lt;br/&gt; Merchant guidelines, or other regulatory regimes&quot;,p38" style="shape=note;whiteSpace=wrap;html=1;backgroundOutline=1;darkOpacity=0.05;align=left;fontSize=6;size=13;" parent="26" vertex="1">
                    <mxGeometry x="17.5" y="5490" width="170" height="91" as="geometry"/>
                </mxCell>
                <mxCell id="444" value="Google hacking / Dorking / Search with operators, e.g., cache:owasp.org, p50, p56" style="rounded=1;whiteSpace=wrap;html=1;arcSize=19;" vertex="1" parent="26">
                    <mxGeometry x="37.5" y="7500" width="120" height="60" as="geometry"/>
                </mxCell>
                <mxCell id="445" value="&quot; Searching with operators can be a very effective discovery technique when combined with the creativity of the tester.&lt;br&gt; Operators can be chained to effectively discover specific kinds of sensitive files and information. This technique, called&lt;br&gt; Google hacking or Dorking, is also possible using other search engines, as long as the search operators are&lt;br&gt; supported.&lt;br&gt; A database of dorks, such as &lt;a href=&quot;https://www.exploit-db.com/google-hacking-database&quot;&gt;Google Hacking Database&lt;/a&gt;&amp;nbsp;[or&amp;nbsp;&lt;span style=&quot;color: rgb(63, 63, 63); background-color: transparent;&quot;&gt;&lt;a href=&quot;https://resources.bishopfox.com/resources/tools/google-hacking-diggity/&quot;&gt;Google Hacking Diggity Project&lt;/a&gt;&amp;nbsp;for other wb browsers]&lt;/span&gt;&lt;span style=&quot;color: rgb(63, 63, 63); background-color: transparent;&quot;&gt;, is a useful resource that can help uncover specific&lt;/span&gt;&lt;div&gt; information. &quot;, 50&lt;/div&gt;" style="shape=note;whiteSpace=wrap;html=1;backgroundOutline=1;darkOpacity=0.05;align=left;fontSize=6;size=10;" vertex="1" parent="26">
                    <mxGeometry x="32.5" y="7580" width="130" height="110" as="geometry"/>
                </mxCell>
                <mxCell id="446" style="edgeStyle=none;html=1;entryX=0.327;entryY=0.985;entryDx=0;entryDy=0;dashed=1;endArrow=none;endFill=0;startArrow=open;startFill=0;entryPerimeter=0;" edge="1" parent="26" source="445" target="444">
                    <mxGeometry relative="1" as="geometry">
                        <mxPoint x="80.5" y="7560" as="targetPoint"/>
                    </mxGeometry>
                </mxCell>
                <mxCell id="455" value="Identify JavaScript, p67,68" style="rounded=1;whiteSpace=wrap;html=1;" vertex="1" parent="26">
                    <mxGeometry x="40" y="5640" width="120" height="60" as="geometry"/>
                </mxCell>
                <mxCell id="456" value="&quot;&lt;span style=&quot;background-color: transparent;&quot;&gt;&lt;font color=&quot;#000000&quot;&gt;Testers should check&amp;nbsp;&lt;/font&gt;&lt;/span&gt;&lt;span style=&quot;color: rgb(63, 63, 63); background-color: transparent;&quot;&gt;HTML source code and look for JavaScript code between&amp;nbsp;&lt;/span&gt;&lt;font style=&quot;color: rgb(63, 63, 63); background-color: transparent;&quot;&gt;&amp;lt;script&amp;gt; and&amp;nbsp;&lt;/font&gt;&lt;span style=&quot;color: rgb(63, 63, 63); background-color: transparent;&quot;&gt;&amp;lt;/script&amp;gt; tags. Testers should also identify&lt;/span&gt;&lt;font style=&quot;color: rgb(63, 63, 63); background-color: transparent;&quot;&gt;&amp;nbsp;external JavaScript files to review the code (JavaScript files have the file extension&amp;nbsp;&lt;/font&gt;&lt;span style=&quot;color: rgb(63, 63, 63); background-color: transparent;&quot;&gt;.js and name of the JavaScript&lt;/span&gt;&lt;font style=&quot;color: rgb(63, 63, 63); background-color: transparent;&quot;&gt;&amp;nbsp;f&lt;/font&gt;&lt;span style=&quot;color: rgb(63, 63, 63); background-color: transparent;&quot;&gt;ile usually put in the&amp;nbsp;&lt;/span&gt;&lt;span style=&quot;color: rgb(63, 63, 63); background-color: transparent;&quot;&gt;src (source) attribute of a&amp;nbsp;&amp;nbsp;&lt;/span&gt;&lt;font style=&quot;background-color: transparent;&quot;&gt;&amp;lt;script&amp;gt; tag).&lt;/font&gt;&lt;span style=&quot;color: rgb(63, 63, 63); background-color: transparent;&quot;&gt;&quot;,p67,68&lt;/span&gt;" style="shape=note;whiteSpace=wrap;html=1;backgroundOutline=1;darkOpacity=0.05;align=left;fontSize=6;size=13;" vertex="1" parent="26">
                    <mxGeometry x="35" y="5720" width="140" height="70" as="geometry"/>
                </mxCell>
                <mxCell id="457" style="edgeStyle=none;html=1;dashed=1;endArrow=none;endFill=0;startArrow=open;startFill=0;" edge="1" parent="26" source="456" target="455">
                    <mxGeometry relative="1" as="geometry">
                        <mxPoint x="90" y="5479" as="targetPoint"/>
                        <mxPoint x="94" y="5500" as="sourcePoint"/>
                    </mxGeometry>
                </mxCell>
                <mxCell id="461" value="Document HTTP requests, etc.,p70" style="rounded=1;whiteSpace=wrap;html=1;fontSize=7;" vertex="1" parent="26">
                    <mxGeometry x="51.25" y="4250" width="120" height="30" as="geometry"/>
                </mxCell>
                <mxCell id="465" value="&quot;&lt;span style=&quot;color: rgb(0, 0, 0); font-size: 7px; text-align: center;&quot;&gt;&quot; testers usually trap every [http(s)] request and response so that they can see exactly every header,&lt;/span&gt;&lt;br style=&quot;color: rgb(63, 63, 63); scrollbar-color: rgb(226, 226, 226) rgb(251, 251, 251); font-size: 7px; text-align: center;&quot;&gt;&lt;span style=&quot;color: rgb(0, 0, 0); font-size: 7px; text-align: center;&quot;&gt;parameter, etc. that is being passed to the application and what is being returned /.../ and save it to a speadsheet /.../ then they can go through the application and test each of the areas that they have identified&lt;/span&gt;&lt;br style=&quot;color: rgb(63, 63, 63); scrollbar-color: rgb(226, 226, 226) rgb(251, 251, 251); font-size: 7px; text-align: center;&quot;&gt;&lt;span style=&quot;color: rgb(0, 0, 0); font-size: 7px; text-align: center;&quot;&gt;and make notes for what worked and what didn’t work,p70&quot;&lt;/span&gt;&quot;" style="shape=note;whiteSpace=wrap;html=1;backgroundOutline=1;darkOpacity=0.05;align=left;fontSize=6;size=13;" vertex="1" parent="26">
                    <mxGeometry x="28.75" y="4140" width="125" height="102" as="geometry"/>
                </mxCell>
                <mxCell id="467" style="edgeStyle=none;html=1;dashed=1;endArrow=none;endFill=0;startArrow=open;startFill=0;entryX=0.605;entryY=0.988;entryDx=0;entryDy=0;entryPerimeter=0;exitX=0.75;exitY=0;exitDx=0;exitDy=0;" edge="1" parent="26" source="461" target="465">
                    <mxGeometry relative="1" as="geometry">
                        <mxPoint x="1146.5" y="4051" as="targetPoint"/>
                        <mxPoint x="1137.5" y="4078" as="sourcePoint"/>
                    </mxGeometry>
                </mxCell>
                <mxCell id="469" value="Test HTTP requests, etc.,p70" style="rounded=1;whiteSpace=wrap;html=1;fontSize=7;" vertex="1" parent="26">
                    <mxGeometry x="41.25" y="4300" width="120" height="30" as="geometry"/>
                </mxCell>
                <mxCell id="471" value="&quot;Map the target application and understand the principal workflows.&quot;,p74" style="rounded=1;whiteSpace=wrap;html=1;" vertex="1" parent="26">
                    <mxGeometry x="32.5" y="70" width="120" height="80" as="geometry"/>
                </mxCell>
                <mxCell id="472" value="&lt;span style=&quot;color: rgb(0, 0, 0); font-size: 7px; text-align: center;&quot;&gt;&quot; Before any testing begins, the tester should always get a good understanding of the application and how the user and&lt;/span&gt;&lt;br style=&quot;color: rgb(63, 63, 63); scrollbar-color: rgb(226, 226, 226) rgb(251, 251, 251); font-size: 7px; text-align: center;&quot;&gt;&lt;span style=&quot;color: rgb(0, 0, 0); font-size: 7px; text-align: center;&quot;&gt;browser communicates with it.&quot;,p70, &quot;Without a thorough&lt;/span&gt;&lt;br style=&quot;color: rgb(63, 63, 63); scrollbar-color: rgb(226, 226, 226) rgb(251, 251, 251); font-size: 7px; text-align: center;&quot;&gt;&lt;span style=&quot;color: rgb(0, 0, 0); font-size: 7px; text-align: center;&quot;&gt;understanding of the layout of the application, it is unlikely that it will be tested thoroughly.&quot;, p74&lt;/span&gt;" style="shape=note;whiteSpace=wrap;html=1;backgroundOutline=1;darkOpacity=0.05;align=left;fontSize=6;size=13;" vertex="1" parent="26">
                    <mxGeometry x="51.25" y="170" width="140" height="75" as="geometry"/>
                </mxCell>
                <mxCell id="473" style="edgeStyle=none;html=1;entryX=0.313;entryY=0.018;entryDx=0;entryDy=0;dashed=1;endArrow=none;endFill=0;startArrow=open;startFill=0;entryPerimeter=0;exitX=0.5;exitY=1;exitDx=0;exitDy=0;" edge="1" parent="26" target="472" source="471">
                    <mxGeometry relative="1" as="geometry">
                        <mxPoint x="-35" y="160" as="targetPoint"/>
                        <mxPoint x="118" y="300" as="sourcePoint"/>
                    </mxGeometry>
                </mxCell>
                <mxCell id="482" value="&lt;div&gt;&lt;font color=&quot;#000000&quot;&gt;&amp;nbsp;[run DAST] Dynamic Application Security Testing (DAST) tools facilitate the use of a web server agent or could be&lt;/font&gt;&lt;/div&gt;&lt;div&gt;&lt;font color=&quot;#000000&quot;&gt;&amp;nbsp;paired with a third-party agent to monitor web application coverage specifics.,p74&lt;/font&gt;&lt;/div&gt;" style="rounded=1;whiteSpace=wrap;html=1;absoluteArcSize=1;arcSize=14;strokeWidth=2;" vertex="1" parent="26">
                    <mxGeometry x="25" y="7720" width="130" height="170" as="geometry"/>
                </mxCell>
                <mxCell id="483" value="Run Zed Attack Proxy (ZAP), p74" style="rounded=1;whiteSpace=wrap;html=1;" vertex="1" parent="26">
                    <mxGeometry x="35" y="7900" width="120" height="60" as="geometry"/>
                </mxCell>
                <mxCell id="484" value="Fingerprint the components being used by the web applications, p74" style="rounded=1;whiteSpace=wrap;html=1;" vertex="1" parent="26">
                    <mxGeometry x="33.75" y="7970" width="120" height="60" as="geometry"/>
                </mxCell>
                <mxCell id="76" value="System architect" style="swimlane;whiteSpace=wrap;html=1;startSize=30;swimlaneFillColor=default;fillStyle=solid;" parent="1" vertex="1">
                    <mxGeometry x="2110" y="200" width="200" height="10000" as="geometry"/>
                </mxCell>
                <mxCell id="372" value="Modify design with alternative approaches of system, p37-38" style="rounded=1;whiteSpace=wrap;html=1;" parent="76" vertex="1">
                    <mxGeometry x="40" y="1975" width="120" height="60" as="geometry"/>
                </mxCell>
                <mxCell id="81" value="Is interviewed as part of manual inspection, p18" style="rounded=1;whiteSpace=wrap;html=1;absoluteArcSize=1;arcSize=14;strokeWidth=2;" parent="76" vertex="1">
                    <mxGeometry x="80" y="7050" width="100" height="100" as="geometry"/>
                </mxCell>
                <mxCell id="34" value="?" style="swimlane;whiteSpace=wrap;html=1;startSize=40;fillStyle=solid;swimlaneFillColor=default;" parent="1" vertex="1">
                    <mxGeometry x="1710" y="-370" width="200" height="10570" as="geometry"/>
                </mxCell>
                <mxCell id="28" value="&lt;div&gt;&lt;font color=&quot;#000000&quot;&gt;&quot;&lt;i&gt;... require accurate documentation of the&lt;/i&gt;&lt;/font&gt;&lt;/div&gt;&lt;div&gt;&lt;font color=&quot;#000000&quot;&gt;&lt;i&gt;&amp;nbsp;application. /.../&amp;nbsp;&lt;/i&gt;&lt;/font&gt;&lt;span style=&quot;background-color: transparent;&quot;&gt;Enumerating the application and its attack surface is a key precursor before any thorough testing can be undertaken&lt;/span&gt;&lt;span style=&quot;background-color: transparent;&quot;&gt;&quot; p16,p70&lt;/span&gt;&lt;/div&gt;" style="rounded=1;whiteSpace=wrap;html=1;absoluteArcSize=1;arcSize=14;strokeWidth=2;fontSize=10;" parent="34" vertex="1">
                    <mxGeometry x="17.5" y="1550" width="132.5" height="130" as="geometry"/>
                </mxCell>
                <mxCell id="50" value="&lt;div&gt;&lt;span style=&quot;background-color: transparent;&quot;&gt;&lt;font color=&quot;#000000&quot;&gt;&lt;i&gt;&amp;nbsp;Develop consistent metrics that can be generated in an automated way from available source code&lt;/i&gt;&lt;/font&gt;&lt;/span&gt;&lt;i&gt;&lt;span style=&quot;color: rgb(63, 63, 63); background-color: transparent;&quot;&gt;&amp;nbsp;p17&lt;/span&gt;&lt;/i&gt;&lt;/div&gt;" style="rounded=1;whiteSpace=wrap;html=1;absoluteArcSize=1;arcSize=14;strokeWidth=2;" parent="34" vertex="1">
                    <mxGeometry x="42.5" y="1850" width="100" height="100" as="geometry"/>
                </mxCell>
                <mxCell id="46" value="&lt;div&gt;&lt;font color=&quot;#000000&quot;&gt;&quot;&lt;i&gt;...&amp;nbsp;&lt;/i&gt;&lt;/font&gt;&lt;span style=&quot;background-color: transparent;&quot;&gt;&lt;i&gt;develop metrics that will reveal the application security trends&lt;/i&gt;&lt;/span&gt;&lt;i style=&quot;color: rgb(63, 63, 63); background-color: transparent;&quot;&gt;.&lt;/i&gt;&lt;span style=&quot;color: rgb(63, 63, 63); background-color: transparent;&quot;&gt;&quot; p17&lt;/span&gt;&lt;/div&gt;" style="rounded=1;whiteSpace=wrap;html=1;absoluteArcSize=1;arcSize=14;strokeWidth=2;" parent="34" vertex="1">
                    <mxGeometry x="42.5" y="1970" width="100" height="100" as="geometry"/>
                </mxCell>
                <mxCell id="48" style="edgeStyle=none;html=1;entryX=0.75;entryY=1;entryDx=0;entryDy=0;dashed=1;endArrow=none;endFill=0;startArrow=open;startFill=0;" parent="34" source="47" target="46" edge="1">
                    <mxGeometry relative="1" as="geometry"/>
                </mxCell>
                <mxCell id="47" value="&lt;span style=&quot;color: rgb(63, 63, 63); background-color: transparent; line-height: 0%;&quot;&gt;Good metrics will show if ...&lt;/span&gt;&lt;br&gt;&lt;span style=&quot;color: rgb(63, 63, 63); background-color: transparent; line-height: 0%;&quot;&gt;* more education and training are required&lt;br&gt;*&amp;nbsp;&lt;/span&gt;&lt;span style=&quot;line-height: 0%;&quot;&gt;&amp;nbsp;there is a particular security mechanism that is not clearly understood by the development team&lt;br&gt;*&amp;nbsp;the total number of security related problems being found is decreasing&lt;/span&gt;&lt;div&gt;&lt;span style=&quot;line-height: 0%;&quot;&gt;&lt;br&gt;&lt;/span&gt;&lt;/div&gt;&lt;div&gt;&lt;span style=&quot;line-height: 0%;&quot;&gt;/.../&amp;nbsp;&lt;/span&gt;&lt;span style=&quot;background-color: transparent;&quot;&gt;Metrics are not easily developed, so using a standard such as the one provided by the IEEE is a good&lt;/span&gt;&lt;/div&gt;&lt;div&gt;&lt;span style=&quot;line-height: 0%;&quot;&gt;&lt;span style=&quot;background-color: transparent;&quot;&gt;&amp;nbsp;starting point.&lt;/span&gt;&amp;nbsp;p17&lt;/span&gt;&lt;/div&gt;" style="shape=note;whiteSpace=wrap;html=1;backgroundOutline=1;darkOpacity=0.05;align=left;fontSize=6;size=13;" parent="34" vertex="1">
                    <mxGeometry x="22.5" y="2090" width="160" height="83.14" as="geometry"/>
                </mxCell>
                <mxCell id="51" value="&lt;div&gt;&lt;span style=&quot;background-color: transparent; color: rgb(63, 63, 63);&quot;&gt;&lt;font color=&quot;#000000&quot;&gt;Agree (all roles) on a testing format for the testing report concluding the testing&amp;nbsp;&lt;/font&gt;&lt;/span&gt;&lt;span style=&quot;background-color: transparent;&quot;&gt;&lt;font color=&quot;#000000&quot;&gt;what testing actions were taken, by whom,&lt;/font&gt;&lt;/span&gt;&lt;/div&gt;&lt;div&gt;&lt;span style=&quot;background-color: transparent; color: rgb(63, 63, 63);&quot;&gt;&lt;font color=&quot;#000000&quot;&gt;&lt;span style=&quot;background-color: transparent;&quot;&gt;&lt;font color=&quot;#000000&quot;&gt;&amp;nbsp;when they were performed, and details of the test findings. Read &quot;&lt;/font&gt;&lt;/span&gt;&lt;/font&gt;&lt;/span&gt;&lt;span style=&quot;background-color: transparent;&quot;&gt;&lt;font color=&quot;#000000&quot;&gt;Document the Test Results&lt;/font&gt;&lt;/span&gt;&lt;span style=&quot;background-color: transparent; color: rgb(63, 63, 63);&quot;&gt;&lt;font&gt;&lt;span style=&quot;background-color: transparent;&quot;&gt;&lt;font&gt;&quot;&lt;/font&gt;&lt;/span&gt;&lt;font&gt;,&amp;nbsp;&lt;/font&gt;&lt;/font&gt;&lt;/span&gt;&lt;span style=&quot;background-color: transparent; color: rgb(63, 63, 63);&quot;&gt;p17&lt;/span&gt;&lt;/div&gt;" style="rounded=1;whiteSpace=wrap;html=1;absoluteArcSize=1;arcSize=14;strokeWidth=2;" parent="34" vertex="1">
                    <mxGeometry x="17.5" y="2240" width="150" height="160" as="geometry"/>
                </mxCell>
                <mxCell id="292" value="Manual ethical hacking, p31" style="rounded=1;whiteSpace=wrap;html=1;absoluteArcSize=1;arcSize=14;strokeWidth=2;" parent="34" vertex="1">
                    <mxGeometry x="43.75" y="3920" width="130" height="82" as="geometry"/>
                </mxCell>
                <mxCell id="15" value="" style="endArrow=classic;startArrow=classic;html=1;" parent="34" edge="1">
                    <mxGeometry width="50" height="50" relative="1" as="geometry">
                        <mxPoint x="-2420" y="6894" as="sourcePoint"/>
                        <mxPoint x="-2420" y="6814" as="targetPoint"/>
                    </mxGeometry>
                </mxCell>
                <mxCell id="16" value="Deploy" style="edgeLabel;html=1;align=center;verticalAlign=middle;resizable=0;points=[];" parent="15" vertex="1" connectable="0">
                    <mxGeometry x="0.052" y="-4" relative="1" as="geometry">
                        <mxPoint x="-4" y="2" as="offset"/>
                    </mxGeometry>
                </mxCell>
                <mxCell id="148" value="" style="shape=link;html=1;strokeColor=#33FF33;" parent="34" edge="1">
                    <mxGeometry width="100" relative="1" as="geometry">
                        <mxPoint x="-2390" y="6814" as="sourcePoint"/>
                        <mxPoint x="1010" y="6824" as="targetPoint"/>
                    </mxGeometry>
                </mxCell>
                <mxCell id="234" value="" style="shape=link;html=1;strokeColor=#33FF33;" parent="34" edge="1">
                    <mxGeometry width="100" relative="1" as="geometry">
                        <mxPoint x="-2000" y="7504" as="sourcePoint"/>
                        <mxPoint x="1210" y="7504" as="targetPoint"/>
                    </mxGeometry>
                </mxCell>
                <mxCell id="301" style="edgeStyle=none;html=1;dashed=1;endArrow=none;endFill=0;startArrow=open;startFill=0;entryX=0.527;entryY=0.006;entryDx=0;entryDy=0;entryPerimeter=0;" parent="34" source="302" target="300" edge="1">
                    <mxGeometry relative="1" as="geometry">
                        <mxPoint x="151.75" y="7554" as="targetPoint"/>
                    </mxGeometry>
                </mxCell>
                <mxCell id="17" value="" style="endArrow=classic;startArrow=classic;html=1;" parent="34" edge="1">
                    <mxGeometry width="50" height="50" relative="1" as="geometry">
                        <mxPoint x="-2440" y="7594" as="sourcePoint"/>
                        <mxPoint x="-2440" y="7514" as="targetPoint"/>
                    </mxGeometry>
                </mxCell>
                <mxCell id="18" value="Maintain" style="edgeLabel;html=1;align=center;verticalAlign=middle;resizable=0;points=[];" parent="17" vertex="1" connectable="0">
                    <mxGeometry x="0.052" y="-4" relative="1" as="geometry">
                        <mxPoint x="-4" y="2" as="offset"/>
                    </mxGeometry>
                </mxCell>
                <mxCell id="250" value="Deploy system, p29" style="rounded=1;whiteSpace=wrap;html=1;absoluteArcSize=1;arcSize=14;strokeWidth=2;" parent="34" vertex="1">
                    <mxGeometry x="47.5" y="6854" width="142.5" height="120" as="geometry"/>
                </mxCell>
                <mxCell id="300" value="Develop&amp;nbsp;ethical hacking techniques, and&lt;br/&gt; security assessment procedures and tools, p31" style="rounded=1;whiteSpace=wrap;html=1;absoluteArcSize=1;arcSize=14;strokeWidth=2;" parent="34" vertex="1">
                    <mxGeometry x="45" y="7887" width="130" height="82" as="geometry"/>
                </mxCell>
                <mxCell id="302" value="&lt;font&gt;&lt;span style=&quot;color: rgb(0, 0, 0); text-align: center;&quot;&gt;&quot;[Develop&amp;nbsp;ethical hacking techniques, and&lt;/span&gt;&lt;br style=&quot;color: rgb(63, 63, 63); scrollbar-color: rgb(226, 226, 226) rgb(251, 251, 251); text-align: center;&quot;&gt;&lt;span style=&quot;color: rgb(0, 0, 0); text-align: center;&quot;&gt;security assessment procedures and tools]&amp;nbsp;&lt;/span&gt;A realistic scenario is to develop such resources in-house and document&lt;br&gt; them in security testing guides and procedures that take into account the developer’s security testing knowledge. A so&lt;br&gt;&lt;div style=&quot;text-align: center;&quot;&gt;&lt;span style=&quot;color: rgb(63, 63, 63); background-color: transparent;&quot;&gt;called “security test cases cheat sheet or checklist”&lt;/span&gt;&lt;span style=&quot;background-color: transparent;&quot;&gt;&lt;font color=&quot;#000000&quot;&gt;, p31&lt;/font&gt;&lt;/span&gt;&lt;/div&gt;&lt;/font&gt;" style="shape=note;whiteSpace=wrap;html=1;backgroundOutline=1;darkOpacity=0.05;align=left;fontSize=6;size=13;" parent="34" vertex="1">
                    <mxGeometry x="7.5" y="7794" width="170" height="70" as="geometry"/>
                </mxCell>
                <mxCell id="330" value="&lt;div&gt;&lt;font color=&quot;#000000&quot;&gt;Decide what secruity tools to use using a tool taxonomy, p33&lt;/font&gt;&lt;/div&gt;" style="rounded=1;whiteSpace=wrap;html=1;absoluteArcSize=1;arcSize=14;strokeWidth=2;" parent="34" vertex="1">
                    <mxGeometry x="25" y="1030" width="150" height="70" as="geometry"/>
                </mxCell>
                <mxCell id="350" value="&lt;div&gt;&lt;font color=&quot;#000000&quot;&gt;Define an SDLC model&amp;nbsp;where security is inherent at each stage, p36&lt;/font&gt;&lt;/div&gt;" style="rounded=1;whiteSpace=wrap;html=1;absoluteArcSize=1;arcSize=14;strokeWidth=2;" parent="34" vertex="1">
                    <mxGeometry x="23.75" y="110" width="150" height="70" as="geometry"/>
                </mxCell>
                <mxCell id="351" value="&lt;div&gt;&lt;font color=&quot;#000000&quot;&gt; Ensure that there are appropriate policies, standards, and documentation in place, p36&lt;/font&gt;&lt;/div&gt;" style="rounded=1;whiteSpace=wrap;html=1;absoluteArcSize=1;arcSize=14;strokeWidth=2;" parent="34" vertex="1">
                    <mxGeometry x="23.75" y="190" width="150" height="80" as="geometry"/>
                </mxCell>
                <mxCell id="352" value="&quot;No policies or standards can cover every&lt;br/&gt; situation that the development team will face. By documenting the common and predictable issues, there will be fewer&lt;br/&gt; decisions that need to be made during the development process.&quot;, 36" style="shape=note;whiteSpace=wrap;html=1;backgroundOutline=1;darkOpacity=0.05;align=left;fontSize=6;size=13;" parent="34" vertex="1">
                    <mxGeometry x="12.5" y="305" width="180" height="45" as="geometry"/>
                </mxCell>
                <mxCell id="353" style="edgeStyle=none;html=1;entryX=0.663;entryY=1.011;entryDx=0;entryDy=0;dashed=1;endArrow=none;endFill=0;startArrow=open;startFill=0;entryPerimeter=0;" parent="34" source="352" target="351" edge="1">
                    <mxGeometry relative="1" as="geometry">
                        <mxPoint x="98.75" y="210" as="targetPoint"/>
                    </mxGeometry>
                </mxCell>
                <mxCell id="354" value="&lt;div&gt;&lt;font color=&quot;#000000&quot;&gt;Plan the measurement program,p36&lt;/font&gt;&lt;/div&gt;" style="rounded=1;whiteSpace=wrap;html=1;absoluteArcSize=1;arcSize=14;strokeWidth=2;" parent="34" vertex="1">
                    <mxGeometry x="23.75" y="370" width="150" height="80" as="geometry"/>
                </mxCell>
                <mxCell id="359" value="&lt;div&gt;&lt;font color=&quot;#000000&quot;&gt;test the assumptions that are made in the security requirements, p37&lt;/font&gt;&lt;/div&gt;" style="rounded=1;whiteSpace=wrap;html=1;absoluteArcSize=1;arcSize=14;strokeWidth=2;" parent="34" vertex="1">
                    <mxGeometry x="27.5" y="770" width="150" height="70" as="geometry"/>
                </mxCell>
                <mxCell id="361" value="&quot;Security requirements define how an application works from a security perspective. It is essential that the security&lt;br/&gt; requirements are tested. Testing in this case means testing the assumptions that are made in the requirements and&lt;br/&gt; testing to see if there are gaps in the requirements definitions.&quot;, p37" style="shape=note;whiteSpace=wrap;html=1;backgroundOutline=1;darkOpacity=0.05;align=left;fontSize=6;size=13;" parent="34" vertex="1">
                    <mxGeometry x="17.5" y="865" width="180" height="90" as="geometry"/>
                </mxCell>
                <mxCell id="362" style="edgeStyle=none;html=1;entryX=0.402;entryY=1.044;entryDx=0;entryDy=0;dashed=1;endArrow=none;endFill=0;startArrow=open;startFill=0;entryPerimeter=0;" parent="34" source="361" target="359" edge="1">
                    <mxGeometry relative="1" as="geometry">
                        <mxPoint x="102.5" y="840" as="targetPoint"/>
                    </mxGeometry>
                </mxCell>
                <mxCell id="365" value="Weaknesses discovered, p37" style="rhombus;whiteSpace=wrap;html=1;" parent="34" vertex="1">
                    <mxGeometry x="47.5" y="2525" width="80" height="80" as="geometry"/>
                </mxCell>
                <mxCell id="378" value="Build UML models to describe how the application works, p37" style="rounded=1;whiteSpace=wrap;html=1;" parent="34" vertex="1">
                    <mxGeometry x="22.5" y="2630" width="120" height="60" as="geometry"/>
                </mxCell>
                <mxCell id="376" style="edgeStyle=none;html=1;exitX=0.5;exitY=1;exitDx=0;exitDy=0;entryX=0.5;entryY=0;entryDx=0;entryDy=0;" parent="34" source="365" target="378" edge="1">
                    <mxGeometry relative="1" as="geometry">
                        <mxPoint x="90" y="2640" as="targetPoint"/>
                    </mxGeometry>
                </mxCell>
                <mxCell id="377" value="No" style="edgeLabel;html=1;align=center;verticalAlign=middle;resizable=0;points=[];" parent="376" vertex="1" connectable="0">
                    <mxGeometry x="-0.6737" y="-1" relative="1" as="geometry">
                        <mxPoint as="offset"/>
                    </mxGeometry>
                </mxCell>
                <mxCell id="394" value="Clear mitigation strategy of all threats, p38" style="rhombus;whiteSpace=wrap;html=1;" parent="34" vertex="1">
                    <mxGeometry x="43.75" y="2790" width="80" height="80" as="geometry"/>
                </mxCell>
                <mxCell id="313" value="" style="shape=link;html=1;strokeColor=#33FF33;" parent="34" edge="1">
                    <mxGeometry width="100" relative="1" as="geometry">
                        <mxPoint x="-1390" y="6814" as="sourcePoint"/>
                        <mxPoint x="2010" y="6824" as="targetPoint"/>
                    </mxGeometry>
                </mxCell>
                <mxCell id="419" value="Penetration testing (after deploy), p38" style="rounded=1;whiteSpace=wrap;html=1;" parent="34" vertex="1">
                    <mxGeometry x="53.75" y="7000" width="120" height="60" as="geometry"/>
                </mxCell>
                <mxCell id="420" value="Examine how the infrastructure was deployed and secured / review configuration aspects, p38" style="rounded=1;whiteSpace=wrap;html=1;" parent="34" vertex="1">
                    <mxGeometry x="55" y="7080" width="120" height="100" as="geometry"/>
                </mxCell>
                <mxCell id="426" style="edgeStyle=none;html=1;entryX=0;entryY=0.5;entryDx=0;entryDy=0;" parent="34" source="422" target="425" edge="1">
                    <mxGeometry relative="1" as="geometry"/>
                </mxCell>
                <mxCell id="422" value="Health checks of application &amp;amp; infrastructure, p39" style="rounded=1;whiteSpace=wrap;html=1;absoluteArcSize=1;arcSize=14;strokeWidth=2;" parent="34" vertex="1">
                    <mxGeometry x="37.5" y="8140" width="130" height="82" as="geometry"/>
                </mxCell>
                <mxCell id="425" value="monthly or quarterly, p39" style="text;html=1;align=center;verticalAlign=middle;whiteSpace=wrap;rounded=0;" parent="34" vertex="1">
                    <mxGeometry x="127.5" y="8250" width="60" height="30" as="geometry"/>
                </mxCell>
                <mxCell id="427" style="edgeStyle=none;html=1;entryX=1.002;entryY=0.654;entryDx=0;entryDy=0;entryPerimeter=0;exitX=1;exitY=0.5;exitDx=0;exitDy=0;" parent="34" source="425" target="422" edge="1">
                    <mxGeometry relative="1" as="geometry"/>
                </mxCell>
                <mxCell id="433" value="&amp;nbsp;test the operational security of&lt;br/&gt; physical locations, workflow, human security testing, physical security testing, wireless security testing,&lt;br/&gt; telecommunication security testing, data networks security testing and compliance, p43" style="rounded=1;whiteSpace=wrap;html=1;" parent="34" vertex="1">
                    <mxGeometry x="7.5" y="8380" width="182.5" height="140" as="geometry"/>
                </mxCell>
                <mxCell id="434" value="Web application security testing, p45" style="rounded=1;whiteSpace=wrap;html=1;" parent="34" vertex="1">
                    <mxGeometry x="45" y="8580" width="120" height="60" as="geometry"/>
                </mxCell>
                <mxCell id="435" value="&quot;Any security issues that are found will be presented to the system owner, together&lt;br/&gt; with an assessment of the impact, a proposal for mitigation or a technical solution.&quot;, p45" style="shape=note;whiteSpace=wrap;html=1;backgroundOutline=1;darkOpacity=0.05;align=left;fontSize=6;size=13;" parent="34" vertex="1">
                    <mxGeometry x="70" y="8657.14" width="90" height="52.86" as="geometry"/>
                </mxCell>
                <mxCell id="436" style="edgeStyle=none;html=1;entryX=0.342;entryY=1.03;entryDx=0;entryDy=0;dashed=1;endArrow=none;endFill=0;startArrow=open;startFill=0;entryPerimeter=0;" parent="34" source="435" target="434" edge="1">
                    <mxGeometry relative="1" as="geometry">
                        <mxPoint x="94.25" y="8640" as="targetPoint"/>
                    </mxGeometry>
                </mxCell>
                <mxCell id="441" value="&amp;nbsp;Conduct Search Engine Discovery Reconnaissance for&lt;br/&gt; Information Leakage,p48" style="rounded=1;whiteSpace=wrap;html=1;" parent="34" vertex="1">
                    <mxGeometry x="40" y="8740" width="120" height="80" as="geometry"/>
                </mxCell>
                <mxCell id="442" value="&quot;Use a search engine to search for potentially sensitive information. This may include:&lt;br&gt; network diagrams and configurations;&lt;br&gt; archived posts and emails by administrators or other key staff; logon procedures and username formats;&lt;br&gt; usernames, passwords, and private keys;&lt;br&gt; third-party, or cloud service configuration files;&lt;br&gt; revealing error message content; and&lt;br&gt; development, test, User Acceptance Testing (UAT), and staging versions of sites.  Do not limit testing to just one search engine provider, as different search engines may generate different results.&quot;, p48" style="shape=note;whiteSpace=wrap;html=1;backgroundOutline=1;darkOpacity=0.05;align=left;fontSize=6;size=13;" parent="34" vertex="1">
                    <mxGeometry x="30" y="8840" width="145" height="90" as="geometry"/>
                </mxCell>
                <mxCell id="443" style="edgeStyle=none;html=1;entryX=0.336;entryY=0.991;entryDx=0;entryDy=0;dashed=1;endArrow=none;endFill=0;startArrow=open;startFill=0;entryPerimeter=0;" parent="34" source="442" target="441" edge="1">
                    <mxGeometry relative="1" as="geometry">
                        <mxPoint x="71" y="8830" as="targetPoint"/>
                    </mxGeometry>
                </mxCell>
                <mxCell id="448" value="Remove finger prints such as server type and version from web server header, p53, p56" style="rounded=1;whiteSpace=wrap;html=1;" vertex="1" parent="34">
                    <mxGeometry x="40" y="8970" width="120" height="60" as="geometry"/>
                </mxCell>
                <mxCell id="450" value="Perform web application discovery, p60" style="rounded=1;whiteSpace=wrap;html=1;" vertex="1" parent="34">
                    <mxGeometry x="37.5" y="9070" width="120" height="60" as="geometry"/>
                </mxCell>
                <mxCell id="458" value="&quot; map out areas within&lt;br/&gt; the application that should be investigated once enumeration and mapping have been completed&quot;,p70" style="rounded=1;whiteSpace=wrap;html=1;" vertex="1" parent="34">
                    <mxGeometry x="20" y="1710" width="140" height="90" as="geometry"/>
                </mxCell>
                <mxCell id="459" style="edgeStyle=none;html=1;entryX=0.451;entryY=0.027;entryDx=0;entryDy=0;entryPerimeter=0;" edge="1" parent="34" source="28" target="458">
                    <mxGeometry relative="1" as="geometry"/>
                </mxCell>
                <mxCell id="37" value="Intrusion detection system / automated testing tools" style="swimlane;whiteSpace=wrap;html=1;startSize=30;swimlaneFillColor=default;fillStyle=solid;" parent="1" vertex="1">
                    <mxGeometry x="2910" y="200" width="200" height="10000" as="geometry"/>
                </mxCell>
                <mxCell id="447" value="Web server finger printing, p52,p55" style="rounded=1;whiteSpace=wrap;html=1;arcSize=19;" vertex="1" parent="37">
                    <mxGeometry x="30" y="8400" width="120" height="60" as="geometry"/>
                </mxCell>
                <mxCell id="40" value="Ongoing monotoring and trending of attacks against application and network, p16" style="rounded=1;whiteSpace=wrap;html=1;absoluteArcSize=1;arcSize=14;strokeWidth=2;" parent="37" vertex="1">
                    <mxGeometry x="60" y="6960" width="100" height="100" as="geometry"/>
                </mxCell>
                <mxCell id="60" value="Security testers" style="swimlane;whiteSpace=wrap;html=1;startSize=30;fillStyle=solid;swimlaneFillColor=default;" parent="1" vertex="1">
                    <mxGeometry x="2510" y="200" width="200" height="10000" as="geometry"/>
                </mxCell>
                <mxCell id="61" value="Write testing report based on the accepted testing report format,&amp;nbsp;&lt;font style=&quot;scrollbar-color: rgb(226, 226, 226) rgb(251, 251, 251);&quot;&gt;, p17&amp;nbsp;&lt;i style=&quot;color: rgb(63, 63, 63); scrollbar-color: rgb(226, 226, 226) rgb(251, 251, 251);&quot;&gt;read &quot;&lt;/i&gt;&lt;/font&gt;&lt;span style=&quot;color: rgb(63, 63, 63); scrollbar-color: rgb(226, 226, 226) rgb(251, 251, 251); background-color: transparent;&quot;&gt;&lt;i style=&quot;color: rgb(63, 63, 63); scrollbar-color: rgb(226, 226, 226) rgb(251, 251, 251);&quot;&gt;Document the Test Results&quot;&lt;/i&gt;&lt;/span&gt;" style="rounded=1;whiteSpace=wrap;html=1;absoluteArcSize=1;arcSize=14;strokeWidth=2;" parent="60" vertex="1">
                    <mxGeometry x="40" y="2938.86" width="120" height="110" as="geometry"/>
                </mxCell>
                <mxCell id="138" value="Senior developer" style="swimlane;whiteSpace=wrap;html=1;startSize=30;fillStyle=solid;swimlaneFillColor=default;" parent="1" vertex="1">
                    <mxGeometry x="1310" y="200" width="200" height="10000" as="geometry"/>
                </mxCell>
                <mxCell id="142" style="edgeStyle=none;html=1;entryX=0.75;entryY=1;entryDx=0;entryDy=0;dashed=1;endArrow=none;endFill=0;startArrow=open;startFill=0;" parent="138" edge="1">
                    <mxGeometry relative="1" as="geometry">
                        <mxPoint x="115" y="1486.8600000000001" as="targetPoint"/>
                    </mxGeometry>
                </mxCell>
                <mxCell id="147" value="&quot;The validation of source code before integration in application builds is usually the responsibility of the senior&lt;br&gt; developer&quot;, p29," style="shape=note;whiteSpace=wrap;html=1;backgroundOutline=1;darkOpacity=0.05;align=left;fontSize=6;size=13;" parent="138" vertex="1">
                    <mxGeometry x="20" y="3610" width="90" height="51" as="geometry"/>
                </mxCell>
                <mxCell id="150" value="Lead the secure code review, p29" style="rounded=1;whiteSpace=wrap;html=1;absoluteArcSize=1;arcSize=14;strokeWidth=2;" parent="138" vertex="1">
                    <mxGeometry x="50" y="3910" width="100" height="60" as="geometry"/>
                </mxCell>
                <mxCell id="400" value="Security team" style="swimlane;whiteSpace=wrap;html=1;startSize=30;fillStyle=solid;swimlaneFillColor=default;" parent="1" vertex="1">
                    <mxGeometry x="3308" y="200" width="200" height="10000" as="geometry"/>
                </mxCell>
                <mxCell id="408" style="edgeStyle=none;html=1;dashed=1;endArrow=none;endFill=0;startArrow=open;startFill=0;entryX=0.315;entryY=0;entryDx=0;entryDy=0;entryPerimeter=0;" parent="400" source="409" target="402" edge="1">
                    <mxGeometry relative="1" as="geometry">
                        <mxPoint x="103.25" y="6130" as="targetPoint"/>
                    </mxGeometry>
                </mxCell>
                <mxCell id="405" value="Participate in code walk-through, p38" style="rounded=1;whiteSpace=wrap;html=1;" parent="400" vertex="1">
                    <mxGeometry x="-2143" y="5300" width="120" height="60" as="geometry"/>
                </mxCell>
                <mxCell id="403" value="Participate in code walk-through, p38" style="rounded=1;whiteSpace=wrap;html=1;" parent="400" vertex="1">
                    <mxGeometry x="-1143" y="5300" width="120" height="60" as="geometry"/>
                </mxCell>
                <mxCell id="402" value="Lead code walk-through, p38" style="rounded=1;whiteSpace=wrap;html=1;" parent="400" vertex="1">
                    <mxGeometry x="57" y="5320" width="120" height="60" as="geometry"/>
                </mxCell>
                <mxCell id="409" value="&quot;A code walkthrough is a high-level look at the code during which the developers can explain the logic and flow of the&lt;br&gt; implemented code. It allows the code review team to obtain a general understanding of the code, and allows the&lt;br&gt; developers to explain why certain things were developed the way they were.&amp;nbsp;&lt;font color=&quot;#000000&quot;&gt;&lt;span style=&quot;background-color: transparent;&quot;&gt;&amp;nbsp;The purpose is not to perform a code review, but to understand at a high level the flow, the layout, and the structure of&amp;nbsp;&lt;/span&gt;&lt;span style=&quot;background-color: transparent;&quot;&gt;the code that makes up the application.&lt;/span&gt;&lt;/font&gt;&quot;, p38" style="shape=note;whiteSpace=wrap;html=1;backgroundOutline=1;darkOpacity=0.05;align=left;fontSize=6;size=13;" parent="400" vertex="1">
                    <mxGeometry x="30" y="5240" width="170" height="60" as="geometry"/>
                </mxCell>
                <mxCell id="404" style="edgeStyle=none;html=1;entryX=1;entryY=0.5;entryDx=0;entryDy=0;" parent="400" source="402" target="403" edge="1">
                    <mxGeometry relative="1" as="geometry"/>
                </mxCell>
                <mxCell id="406" style="edgeStyle=none;html=1;entryX=1;entryY=0.5;entryDx=0;entryDy=0;" parent="400" source="403" target="405" edge="1">
                    <mxGeometry relative="1" as="geometry"/>
                </mxCell>
                <mxCell id="3" value="&lt;h1 style=&quot;margin-top: 0px;&quot;&gt;OWASP&amp;nbsp;WSTG - v4.2&lt;/h1&gt;&lt;p&gt;Swimlane model based on WSTG v4.2 (https://owasp.org/www-project-web-security-testing-guide/v42/)&lt;/p&gt;" style="text;html=1;whiteSpace=wrap;overflow=hidden;rounded=0;" parent="1" vertex="1">
                    <mxGeometry y="-680" width="400" height="120" as="geometry"/>
                </mxCell>
                <mxCell id="5" value="" style="endArrow=classic;startArrow=classic;html=1;" parent="1" edge="1">
                    <mxGeometry width="50" height="50" relative="1" as="geometry">
                        <mxPoint x="-720" y="280" as="sourcePoint"/>
                        <mxPoint x="-720" y="200" as="targetPoint"/>
                    </mxGeometry>
                </mxCell>
                <mxCell id="6" value="Define" style="edgeLabel;html=1;align=center;verticalAlign=middle;resizable=0;points=[];" parent="5" vertex="1" connectable="0">
                    <mxGeometry x="0.052" y="-4" relative="1" as="geometry">
                        <mxPoint x="-4" y="3" as="offset"/>
                    </mxGeometry>
                </mxCell>
                <mxCell id="20" value="Legal coucil" style="swimlane;whiteSpace=wrap;html=1;startSize=30;" parent="1" vertex="1">
                    <mxGeometry x="-490" y="200" width="200" height="10000" as="geometry"/>
                </mxCell>
                <mxCell id="23" value="Give each asset a security classification that state how they are to be handeled (confidental, secret, top secret), p16" style="rounded=1;whiteSpace=wrap;html=1;absoluteArcSize=1;arcSize=14;strokeWidth=2;" parent="20" vertex="1">
                    <mxGeometry x="44" y="920.86" width="100" height="149.14" as="geometry"/>
                </mxCell>
                <mxCell id="22" value="Authorities" style="swimlane;whiteSpace=wrap;html=1;startSize=30;swimlaneFillColor=default;" parent="1" vertex="1">
                    <mxGeometry x="-690" y="200" width="200" height="10000" as="geometry"/>
                </mxCell>
                <mxCell id="24" value="Regulations, law,directives, etc., p16" style="strokeWidth=2;html=1;shape=mxgraph.flowchart.document2;whiteSpace=wrap;size=0.25;" parent="22" vertex="1">
                    <mxGeometry x="40" y="870.86" width="100" height="60" as="geometry"/>
                </mxCell>
                <mxCell id="32" value="Storage of documentation &amp;amp; code" style="swimlane;whiteSpace=wrap;html=1;startSize=30;" parent="1" vertex="1">
                    <mxGeometry x="1910" y="200" width="200" height="10000" as="geometry"/>
                </mxCell>
                <mxCell id="52" value="&lt;div&gt;&lt;font color=&quot;#000000&quot;&gt;&amp;nbsp;Security test report template&lt;/font&gt;&lt;font style=&quot;background-color: transparent;&quot;&gt;, p17 &lt;i&gt;read &quot;&lt;/i&gt;&lt;/font&gt;&lt;span style=&quot;color: rgb(63, 63, 63); background-color: transparent;&quot;&gt;&lt;i&gt;Document the Test Results&quot;&lt;/i&gt;&lt;/span&gt;&lt;/div&gt;" style="strokeWidth=2;html=1;shape=mxgraph.flowchart.document2;whiteSpace=wrap;size=0.09560392610319293;verticalAlign=top;" parent="32" vertex="1">
                    <mxGeometry x="40" y="1706.8600000000001" width="100" height="90" as="geometry"/>
                </mxCell>
                <mxCell id="264" style="edgeStyle=none;html=1;entryX=0.909;entryY=-0.088;entryDx=0;entryDy=0;entryPerimeter=0;exitX=0.197;exitY=1.013;exitDx=0;exitDy=0;exitPerimeter=0;" parent="32" source="54" target="92" edge="1">
                    <mxGeometry relative="1" as="geometry">
                        <mxPoint x="210" y="1440" as="targetPoint"/>
                    </mxGeometry>
                </mxCell>
                <mxCell id="54" value="&lt;span style=&quot;color: rgb(0, 0, 0);&quot;&gt;Desired &amp;amp; disllowed use cases, p16&lt;/span&gt;" style="strokeWidth=2;html=1;shape=mxgraph.flowchart.document2;whiteSpace=wrap;size=0.13095252627418005;verticalAlign=top;" parent="32" vertex="1">
                    <mxGeometry x="30" y="1080.0000000000002" width="100" height="70" as="geometry"/>
                </mxCell>
                <mxCell id="324" style="edgeStyle=none;html=1;exitX=0.477;exitY=0.937;exitDx=0;exitDy=0;exitPerimeter=0;" parent="32" source="57" target="323" edge="1">
                    <mxGeometry relative="1" as="geometry"/>
                </mxCell>
                <mxCell id="57" value="&lt;span style=&quot;color: rgb(0, 0, 0);&quot;&gt;Metrics to measure and track security trends, p17&lt;/span&gt;" style="strokeWidth=2;html=1;shape=mxgraph.flowchart.document2;whiteSpace=wrap;size=0.13095252627418005;verticalAlign=top;" parent="32" vertex="1">
                    <mxGeometry x="90" y="1330.0000000000002" width="100" height="80" as="geometry"/>
                </mxCell>
                <mxCell id="117" value="&lt;span style=&quot;color: rgb(0, 0, 0);&quot;&gt;Business req., p24&lt;/span&gt;" style="strokeWidth=2;html=1;shape=mxgraph.flowchart.document2;whiteSpace=wrap;size=0.13095252627418005;verticalAlign=top;" parent="32" vertex="1">
                    <mxGeometry x="40" y="40.000000000000114" width="100" height="50" as="geometry"/>
                </mxCell>
                <mxCell id="118" value="&quot;A business requirement document can provide initial high-level information on the expected functionality of the application. /.../  A security section of the business requirements should highlight the need to protect the customer data as well as to comply with applicable security documentation such as regulations, standards, and policies. /.../ A general checklist of the applicable regulations, standards, and policies is a good preliminary security compliance&lt;br&gt; analysis for web applications. /.../ Some of these compliance guidelines and regulations might translate into specific technical requirements for security controls&quot;, p24" style="shape=note;whiteSpace=wrap;html=1;backgroundOutline=1;darkOpacity=0.05;align=left;fontSize=6;size=13;" parent="32" vertex="1">
                    <mxGeometry x="10" y="110" width="180" height="90" as="geometry"/>
                </mxCell>
                <mxCell id="119" style="edgeStyle=none;html=1;entryX=0.55;entryY=0.908;entryDx=0;entryDy=0;dashed=1;endArrow=none;endFill=0;startArrow=open;startFill=0;entryPerimeter=0;" parent="32" source="118" target="117" edge="1">
                    <mxGeometry relative="1" as="geometry">
                        <mxPoint x="97" y="90" as="targetPoint"/>
                    </mxGeometry>
                </mxCell>
                <mxCell id="116" style="edgeStyle=none;html=1;entryX=0.572;entryY=0.879;entryDx=0;entryDy=0;dashed=1;endArrow=none;endFill=0;startArrow=open;startFill=0;entryPerimeter=0;" parent="32" source="114" target="115" edge="1">
                    <mxGeometry relative="1" as="geometry">
                        <mxPoint x="245" y="230.0000000000001" as="targetPoint"/>
                    </mxGeometry>
                </mxCell>
                <mxCell id="114" value="&quot;... how to document requirements for security testing by&lt;br&gt; deriving them from applicable standards and regulations /.../ how to document requirements for security testing by&lt;br&gt; deriving them from applicable standards and regulations, from positive application requirements (specifying what the&lt;br&gt; application is supposed to do), and from negative application requirements (specifying what the application should not&lt;br&gt; do).&quot;, p23, &quot;The first step in the documentation of security requirements is to understand the business requirements /.../&amp;nbsp;&lt;span style=&quot;color: rgb(0, 0, 0);&quot;&gt;Some of these compliance guidelines and regulations might translate into specific technical requirements for security controls&lt;/span&gt;&quot; p24&amp;nbsp;&lt;i style=&quot;color: rgb(63, 63, 63); scrollbar-color: rgb(226, 226, 226) rgb(251, 251, 251);&quot;&gt;read &quot;&lt;/i&gt;&lt;span style=&quot;color: rgb(63, 63, 63); scrollbar-color: rgb(226, 226, 226) rgb(251, 251, 251); background-color: transparent;&quot;&gt;&lt;i style=&quot;color: rgb(63, 63, 63); scrollbar-color: rgb(226, 226, 226) rgb(251, 251, 251);&quot;&gt;Security Requirements Documentation&quot;&lt;br&gt;&lt;/i&gt;&lt;span style=&quot;color: rgb(63, 63, 63); scrollbar-color: rgb(226, 226, 226) rgb(251, 251, 251);&quot;&gt;&lt;br&gt;&quot; the exposure of security controls to common vulnerabilities, such&lt;br&gt; as the OWASP Top Ten, can be a good starting point to derive general security requirements.&quot;, p25&amp;nbsp;&lt;br&gt;&lt;br&gt;&quot; In order to validate security requirements with security tests, security requirements need to be function-driven.&quot;, p26 see&amp;nbsp;Deriving Functional and Non-Functional Test Requirements&lt;/span&gt;&lt;/span&gt;&lt;div&gt;&lt;span style=&quot;color: rgb(63, 63, 63); scrollbar-color: rgb(226, 226, 226) rgb(251, 251, 251); background-color: transparent;&quot;&gt;&lt;span style=&quot;color: rgb(63, 63, 63); scrollbar-color: rgb(226, 226, 226) rgb(251, 251, 251);&quot;&gt;&lt;br&gt;&lt;/span&gt;&lt;/span&gt;&lt;/div&gt;&lt;div&gt;&lt;span style=&quot;color: rgb(63, 63, 63); scrollbar-color: rgb(226, 226, 226) rgb(251, 251, 251); background-color: transparent;&quot;&gt;&lt;span style=&quot;color: rgb(63, 63, 63); scrollbar-color: rgb(226, 226, 226) rgb(251, 251, 251);&quot;&gt;&quot;The identification of the&lt;br/&gt; most critical misuse and abuse cases drives the documentation of security requirements and the necessary controls&lt;br/&gt; where security risks should be mitigated.&quot;, p27&lt;/span&gt;&lt;/span&gt;&lt;/div&gt;" style="shape=note;whiteSpace=wrap;html=1;backgroundOutline=1;darkOpacity=0.05;align=left;fontSize=6;size=13;" parent="32" vertex="1">
                    <mxGeometry x="30" y="290" width="160" height="230" as="geometry"/>
                </mxCell>
                <mxCell id="115" value="&lt;span style=&quot;color: rgb(0, 0, 0);&quot;&gt;Security requirements, p23&lt;/span&gt;" style="strokeWidth=2;html=1;shape=mxgraph.flowchart.document2;whiteSpace=wrap;size=0.13095252627418005;verticalAlign=top;" parent="32" vertex="1">
                    <mxGeometry x="50" y="210" width="100" height="50" as="geometry"/>
                </mxCell>
                <mxCell id="93" style="edgeStyle=none;html=1;entryX=0.572;entryY=0.879;entryDx=0;entryDy=0;dashed=1;endArrow=none;endFill=0;startArrow=open;startFill=0;entryPerimeter=0;" parent="32" source="94" target="92" edge="1">
                    <mxGeometry relative="1" as="geometry">
                        <mxPoint x="245" y="2080" as="targetPoint"/>
                    </mxGeometry>
                </mxCell>
                <mxCell id="125" style="edgeStyle=none;html=1;entryX=0.508;entryY=0.937;entryDx=0;entryDy=0;dashed=1;endArrow=none;endFill=0;startArrow=open;startFill=0;entryPerimeter=0;" parent="32" source="124" target="123" edge="1">
                    <mxGeometry relative="1" as="geometry">
                        <mxPoint x="97" y="2330" as="targetPoint"/>
                    </mxGeometry>
                </mxCell>
                <mxCell id="126" value="&lt;span style=&quot;color: rgb(0, 0, 0);&quot;&gt;risk mitigation&lt;br/&gt; strategy,p 25&lt;/span&gt;" style="strokeWidth=2;html=1;shape=mxgraph.flowchart.document2;whiteSpace=wrap;size=0.13095252627418005;verticalAlign=top;" parent="32" vertex="1">
                    <mxGeometry x="30" y="1000" width="100" height="70" as="geometry"/>
                </mxCell>
                <mxCell id="127" value="&lt;span style=&quot;color: rgb(0, 0, 0);&quot;&gt; secure&lt;br/&gt; coding standards,p 25&lt;/span&gt;" style="strokeWidth=2;html=1;shape=mxgraph.flowchart.document2;whiteSpace=wrap;size=0.13095252627418005;verticalAlign=top;" parent="32" vertex="1">
                    <mxGeometry x="30" y="910" width="100" height="70" as="geometry"/>
                </mxCell>
                <mxCell id="131" value="&lt;span style=&quot;color: rgb(0, 0, 0);&quot;&gt;Backlog&lt;/span&gt;" style="strokeWidth=2;html=1;shape=mxgraph.flowchart.document2;whiteSpace=wrap;size=0.13095252627418005;verticalAlign=top;" parent="32" vertex="1">
                    <mxGeometry x="40" y="2850" width="100" height="50" as="geometry"/>
                </mxCell>
                <mxCell id="262" value="&quot;threat scenarios identified with use and misuse cases can be used to document the procedures for testing software components.&quot;, p30" style="shape=note;whiteSpace=wrap;html=1;backgroundOutline=1;darkOpacity=0.05;align=left;fontSize=6;size=13;" parent="32" vertex="1">
                    <mxGeometry x="70" y="1170" width="125" height="32.86" as="geometry"/>
                </mxCell>
                <mxCell id="263" style="edgeStyle=none;html=1;dashed=1;endArrow=none;endFill=0;startArrow=open;startFill=0;entryX=0.749;entryY=0.884;entryDx=0;entryDy=0;entryPerimeter=0;" parent="32" source="262" target="54" edge="1">
                    <mxGeometry relative="1" as="geometry">
                        <mxPoint x="90" y="1080" as="targetPoint"/>
                    </mxGeometry>
                </mxCell>
                <mxCell id="254" value="&lt;span style=&quot;color: rgb(0, 0, 0);&quot;&gt;Secure coding standards, p30&lt;/span&gt;" style="strokeWidth=2;html=1;shape=mxgraph.flowchart.document2;whiteSpace=wrap;size=0.13095252627418005;verticalAlign=top;" parent="32" vertex="1">
                    <mxGeometry x="40" y="2938.86" width="100" height="50" as="geometry"/>
                </mxCell>
                <mxCell id="181" value="&lt;span style=&quot;color: rgb(0, 0, 0);&quot;&gt;Test results, p29&lt;/span&gt;" style="strokeWidth=2;html=1;shape=mxgraph.flowchart.document2;whiteSpace=wrap;size=0.13095252627418005;verticalAlign=top;" parent="32" vertex="1">
                    <mxGeometry x="50" y="3565" width="100" height="50" as="geometry"/>
                </mxCell>
                <mxCell id="173" value="&lt;span style=&quot;color: rgb(0, 0, 0);&quot;&gt;Fomal acceptance of software changes (sign off that it&#39;s ready for integration with rest of application), p29&amp;nbsp;&lt;/span&gt;" style="strokeWidth=2;html=1;shape=mxgraph.flowchart.document2;whiteSpace=wrap;size=0.13095252627418005;verticalAlign=top;" parent="32" vertex="1">
                    <mxGeometry x="50" y="3650" width="100" height="140" as="geometry"/>
                </mxCell>
                <mxCell id="108" value="&lt;span style=&quot;color: rgb(0, 0, 0);&quot;&gt;Source code&lt;/span&gt;" style="strokeWidth=2;html=1;shape=mxgraph.flowchart.document2;whiteSpace=wrap;size=0.13095252627418005;verticalAlign=top;" parent="32" vertex="1">
                    <mxGeometry x="70" y="3810" width="100" height="50" as="geometry"/>
                </mxCell>
                <mxCell id="197" value="&lt;span style=&quot;color: rgb(0, 0, 0);&quot;&gt;&amp;nbsp;security testing guidelines and procedures (incl.&amp;nbsp;security test cases), p29&lt;/span&gt;" style="strokeWidth=2;html=1;shape=mxgraph.flowchart.document2;whiteSpace=wrap;size=0.13095252627418005;verticalAlign=top;" parent="32" vertex="1">
                    <mxGeometry x="75" y="4110" width="100" height="90" as="geometry"/>
                </mxCell>
                <mxCell id="200" value="&quot; In order to perform security&lt;br/&gt; tests, it is a prerequisite that security test cases are documented in the security testing guidelines and procedures.&quot;, p29" style="shape=note;whiteSpace=wrap;html=1;backgroundOutline=1;darkOpacity=0.05;align=left;fontSize=6;size=13;" parent="32" vertex="1">
                    <mxGeometry x="50" y="4218" width="125" height="42" as="geometry"/>
                </mxCell>
                <mxCell id="199" style="edgeStyle=none;html=1;dashed=1;endArrow=none;endFill=0;startArrow=open;startFill=0;entryX=0.544;entryY=0.905;entryDx=0;entryDy=0;entryPerimeter=0;" parent="32" source="200" target="197" edge="1">
                    <mxGeometry relative="1" as="geometry">
                        <mxPoint x="-82" y="4000" as="targetPoint"/>
                    </mxGeometry>
                </mxCell>
                <mxCell id="279" value="&lt;span style=&quot;color: rgb(0, 0, 0);&quot;&gt;security asses 3rd party and executable files, p30&lt;/span&gt;" style="strokeWidth=2;html=1;shape=mxgraph.flowchart.document2;whiteSpace=wrap;size=0.13095252627418005;verticalAlign=top;" parent="32" vertex="1">
                    <mxGeometry x="70" y="5020" width="100" height="70" as="geometry"/>
                </mxCell>
                <mxCell id="281" value="&quot;the manager of the application builds also makes sure that third party libraries and executable files are security assessed for potential vulnerabilities before being integrated in the application build&quot;, p30" style="shape=note;whiteSpace=wrap;html=1;backgroundOutline=1;darkOpacity=0.05;align=left;fontSize=6;size=13;" parent="32" vertex="1">
                    <mxGeometry x="20" y="5108" width="125" height="52" as="geometry"/>
                </mxCell>
                <mxCell id="280" style="edgeStyle=none;html=1;dashed=1;endArrow=none;endFill=0;startArrow=open;startFill=0;entryX=0.544;entryY=0.905;entryDx=0;entryDy=0;entryPerimeter=0;" parent="32" source="281" target="279" edge="1">
                    <mxGeometry relative="1" as="geometry">
                        <mxPoint x="-287" y="5070" as="targetPoint"/>
                    </mxGeometry>
                </mxCell>
                <mxCell id="257" value="security test cases, p30" style="shape=document;whiteSpace=wrap;html=1;boundedLbl=1;" parent="32" vertex="1">
                    <mxGeometry x="52.5" y="3200" width="120" height="80" as="geometry"/>
                </mxCell>
                <mxCell id="259" value="&quot;A generic security test suite could be derived from previously defined use and misuse cases to security test functions, methods and classes /.../ Developers empowered with a source code analysis tool integrated into their IDE, secure coding standards, and a&lt;br&gt; security unit testing framework can assess and verify the security of the software components being developed. /.../  Unit test frameworks such as JUnit, NUnit, and CUnit can be adapted to&lt;br&gt; verify security test requirements /.../  threat scenarios identified with use and misuse cases can be used to document the procedures for testing software&lt;br/&gt; components.&quot;, p30" style="shape=note;whiteSpace=wrap;html=1;backgroundOutline=1;darkOpacity=0.05;align=left;fontSize=6;size=13;" parent="32" vertex="1">
                    <mxGeometry x="17.5" y="3297.14" width="172.5" height="92.86" as="geometry"/>
                </mxCell>
                <mxCell id="260" style="edgeStyle=none;html=1;dashed=1;endArrow=none;endFill=0;startArrow=open;startFill=0;entryX=0.395;entryY=0.933;entryDx=0;entryDy=0;entryPerimeter=0;" parent="32" source="259" target="257" edge="1">
                    <mxGeometry relative="1" as="geometry">
                        <mxPoint x="-1312" y="3030" as="targetPoint"/>
                    </mxGeometry>
                </mxCell>
                <mxCell id="323" value="Defining the goals for the security testing metrics and measurements is a prerequisite for using security testing data for&lt;br&gt; risk analysis and management processes.,p32" style="shape=note;whiteSpace=wrap;html=1;backgroundOutline=1;darkOpacity=0.05;fontSize=6;align=left;" parent="32" vertex="1">
                    <mxGeometry x="97.5" y="1420" width="92.5" height="70" as="geometry"/>
                </mxCell>
                <mxCell id="331" value="&lt;span style=&quot;color: rgb(0, 0, 0);&quot;&gt;List of security tools in use&lt;/span&gt;" style="strokeWidth=2;html=1;shape=mxgraph.flowchart.document2;whiteSpace=wrap;size=0.13095252627418005;verticalAlign=top;" parent="32" vertex="1">
                    <mxGeometry x="65" y="560" width="100" height="50" as="geometry"/>
                </mxCell>
                <mxCell id="346" value="" style="edgeStyle=none;html=1;entryX=0.552;entryY=0.757;entryDx=0;entryDy=0;entryPerimeter=0;" parent="32" source="347" target="343" edge="1">
                    <mxGeometry relative="1" as="geometry">
                        <mxPoint x="112.5" y="2560" as="targetPoint"/>
                    </mxGeometry>
                </mxCell>
                <mxCell id="363" value="&lt;span style=&quot;color: rgb(0, 0, 0);&quot;&gt;Documented design &amp;amp; architecture, p37&lt;/span&gt;" style="strokeWidth=2;html=1;shape=mxgraph.flowchart.document2;whiteSpace=wrap;size=0.13095252627418005;verticalAlign=top;" parent="32" vertex="1">
                    <mxGeometry x="15" y="1930" width="100" height="60" as="geometry"/>
                </mxCell>
                <mxCell id="342" value="Report security test data incl. how to replicate and re-test vulnerability (if found through penetration test, then also guidence on how to validate the exposure of the vulnerability to the front en, p34" style="rounded=1;whiteSpace=wrap;html=1;" parent="32" vertex="1">
                    <mxGeometry x="-152.5" y="2635" width="120" height="160" as="geometry"/>
                </mxCell>
                <mxCell id="344" style="edgeStyle=none;html=1;entryX=-0.006;entryY=0.348;entryDx=0;entryDy=0;entryPerimeter=0;" parent="32" source="342" target="343" edge="1">
                    <mxGeometry relative="1" as="geometry"/>
                </mxCell>
                <mxCell id="343" value="Security test data report (user story?), p33" style="shape=document;whiteSpace=wrap;html=1;boundedLbl=1;" parent="32" vertex="1">
                    <mxGeometry x="30.5" y="2665" width="120" height="80" as="geometry"/>
                </mxCell>
                <mxCell id="347" value="&quot; The information about how to fix the vulnerability should be detailed enough for a developer to implement a fix. It&lt;br/&gt; should provide secure coding examples, configuration changes, and provide adequate references. Finally, the severity rating contributes to the calculation of risk rating and helps to prioritize the remediation effort.&quot;, p34" style="shape=note;whiteSpace=wrap;html=1;backgroundOutline=1;darkOpacity=0.05;align=left;fontSize=6;size=13;" parent="32" vertex="1">
                    <mxGeometry x="15" y="2771" width="180" height="70" as="geometry"/>
                </mxCell>
                <mxCell id="124" value="&quot; A threat and countermeasure classification , which takes into consideration root causes of vulnerabilities, is the&lt;br&gt; critical factor in verifying that security controls are designed, coded, and built to mitigate the impact of the exposure of&lt;br&gt; such vulnerabilities. /.../  The focus of a threat and countermeasure categorization is to define security requirements in terms of the threats and the root cause of the vulnerability&quot;, p25 read&amp;nbsp;Threats and Countermeasures Taxonomies" style="shape=note;whiteSpace=wrap;html=1;backgroundOutline=1;darkOpacity=0.05;align=left;fontSize=6;size=13;" parent="32" vertex="1">
                    <mxGeometry x="10" y="2590" width="180" height="70" as="geometry"/>
                </mxCell>
                <mxCell id="123" value="&lt;span style=&quot;color: rgb(0, 0, 0);&quot;&gt;threat and countermeasure classificatio, p25&lt;/span&gt;" style="strokeWidth=2;html=1;shape=mxgraph.flowchart.document2;whiteSpace=wrap;size=0.13095252627418005;verticalAlign=top;" parent="32" vertex="1">
                    <mxGeometry x="45" y="2520" width="100" height="60" as="geometry"/>
                </mxCell>
                <mxCell id="94" value="&quot; It is recommended that all applications&lt;br&gt; have a threat model developed and documented. Threat models should be created as early as possible in the SDLC,&lt;br&gt; and should be revisited as the application evolves and development progresses. /.../  To develop a threat model, we recommend taking a simple approach that follows the NIST 800-30 standard for risk assessment.&quot;, p18, &quot; The output from a threat model itself can vary but is typically a collection of lists and diagrams.&quot;, p19, &quot;threat modeling focuses on identifying security flaws during design&quot;, p24, , &quot;the OWASP Top Ten vulnerabilities can be mapped to attacks such as phishing, privacy violations, identify theft, system compromise, data alteration or data&lt;br&gt; destruction, financial loss, and reputation loss. Such issues should be documented as part of the threat scenarios.&quot;, p25,&amp;nbsp;" style="shape=note;whiteSpace=wrap;html=1;backgroundOutline=1;darkOpacity=0.05;align=left;fontSize=6;size=13;" parent="32" vertex="1">
                    <mxGeometry x="10" y="2390" width="180" height="120" as="geometry"/>
                </mxCell>
                <mxCell id="92" value="&lt;span style=&quot;color: rgb(0, 0, 0);&quot;&gt;Threat models, p18&lt;/span&gt;" style="strokeWidth=2;html=1;shape=mxgraph.flowchart.document2;whiteSpace=wrap;size=0.13095252627418005;verticalAlign=top;" parent="32" vertex="1">
                    <mxGeometry x="80" y="2320" width="100" height="50" as="geometry"/>
                </mxCell>
                <mxCell id="364" value="&lt;span style=&quot;color: rgb(0, 0, 0);&quot;&gt;Identified security flaws, p37&lt;/span&gt;" style="strokeWidth=2;html=1;shape=mxgraph.flowchart.document2;whiteSpace=wrap;size=0.13095252627418005;verticalAlign=top;" parent="32" vertex="1">
                    <mxGeometry x="5" y="2090" width="100" height="50" as="geometry"/>
                </mxCell>
                <mxCell id="316" value="" style="shape=link;html=1;strokeColor=#33FF33;" parent="32" edge="1">
                    <mxGeometry width="100" relative="1" as="geometry">
                        <mxPoint x="-2670" y="30" as="sourcePoint"/>
                        <mxPoint x="1182.6668294270835" y="30.139999999999873" as="targetPoint"/>
                    </mxGeometry>
                </mxCell>
                <mxCell id="389" value="&lt;span style=&quot;color: rgb(0, 0, 0);&quot;&gt;UML models explaining exactely how the system works, p37-38&lt;/span&gt;" style="strokeWidth=2;html=1;shape=mxgraph.flowchart.document2;whiteSpace=wrap;size=0.13095252627418005;verticalAlign=top;" parent="32" vertex="1">
                    <mxGeometry x="17.5" y="2150" width="100" height="100" as="geometry"/>
                </mxCell>
                <mxCell id="305" value="&lt;div&gt;&lt;font color=&quot;#000000&quot;&gt; security testing guides and procedures,p31&lt;/font&gt;&lt;/div&gt;" style="strokeWidth=2;html=1;shape=mxgraph.flowchart.document2;whiteSpace=wrap;size=0.09560392610319293;verticalAlign=top;" parent="32" vertex="1">
                    <mxGeometry x="72.5" y="7160.000000000001" width="100" height="60" as="geometry"/>
                </mxCell>
                <mxCell id="303" value="&lt;div&gt;&lt;font color=&quot;#000000&quot;&gt;“security test cases cheat sheet or checklist”,p31&lt;/font&gt;&lt;/div&gt;" style="strokeWidth=2;html=1;shape=mxgraph.flowchart.document2;whiteSpace=wrap;size=0.09560392610319293;verticalAlign=top;" parent="32" vertex="1">
                    <mxGeometry x="87.5" y="7230.000000000001" width="100" height="60" as="geometry"/>
                </mxCell>
                <mxCell id="97" value="&lt;span style=&quot;color: rgb(0, 0, 0);&quot;&gt;Threat models, p18&lt;/span&gt;" style="strokeWidth=2;html=1;shape=mxgraph.flowchart.document2;whiteSpace=wrap;size=0.13095252627418005;verticalAlign=top;" parent="32" vertex="1">
                    <mxGeometry x="40" y="7320" width="100" height="50" as="geometry"/>
                </mxCell>
                <mxCell id="85" value="&lt;div&gt;&lt;font color=&quot;#000000&quot;&gt;&amp;nbsp;Documentation &amp;amp; interview guidelines, p18&lt;/font&gt;&lt;/div&gt;" style="strokeWidth=2;html=1;shape=mxgraph.flowchart.document2;whiteSpace=wrap;size=0.09560392610319293;verticalAlign=top;" parent="32" vertex="1">
                    <mxGeometry x="60" y="7060.000000000001" width="100" height="60" as="geometry"/>
                </mxCell>
                <mxCell id="421" value="Process stating&amp;nbsp;how the operational side of application and infrastructure is managed, p39" style="shape=document;whiteSpace=wrap;html=1;boundedLbl=1;size=0.08333333333333333;" parent="32" vertex="1">
                    <mxGeometry x="38" y="6950" width="120" height="90" as="geometry"/>
                </mxCell>
                <mxCell id="430" value="&quot; After every change has been approved and tested in the QA environment and deployed into the production&lt;br/&gt; environment, it is vital that the change is checked to ensure that the level of security has not been affected by the&lt;br/&gt; change. This should be integrated into the change management process&quot;, p39" style="shape=note;whiteSpace=wrap;html=1;backgroundOutline=1;darkOpacity=0.05;align=left;fontSize=6;size=13;" parent="32" vertex="1">
                    <mxGeometry x="58.75" y="7657.14" width="90" height="80" as="geometry"/>
                </mxCell>
                <mxCell id="431" style="edgeStyle=none;html=1;entryX=0.433;entryY=0.992;entryDx=0;entryDy=0;dashed=1;endArrow=none;endFill=0;startArrow=open;startFill=0;entryPerimeter=0;" parent="32" source="430" target="432" edge="1">
                    <mxGeometry relative="1" as="geometry">
                        <mxPoint x="85.75" y="7640" as="targetPoint"/>
                    </mxGeometry>
                </mxCell>
                <mxCell id="432" value="&lt;span style=&quot;color: rgb(0, 0, 0);&quot;&gt;Change management process, p39&lt;/span&gt;" style="strokeWidth=2;html=1;shape=mxgraph.flowchart.document2;whiteSpace=wrap;size=0.13095252627418005;verticalAlign=top;" parent="32" vertex="1">
                    <mxGeometry x="40" y="7580" width="100" height="60" as="geometry"/>
                </mxCell>
                <mxCell id="437" value="Assessment of security impact, a proposal for mitigation or a technical solution,p45" style="shape=document;whiteSpace=wrap;html=1;boundedLbl=1;size=0.125;" parent="32" vertex="1">
                    <mxGeometry x="25" y="8010" width="120" height="80" as="geometry"/>
                </mxCell>
                <mxCell id="462" value="&lt;span style=&quot;color: rgb(0, 0, 0);&quot;&gt;HTTP data,p70&lt;/span&gt;" style="strokeWidth=2;html=1;shape=mxgraph.flowchart.document2;whiteSpace=wrap;size=0.13095252627418005;verticalAlign=top;" vertex="1" parent="32">
                    <mxGeometry x="58.75" y="3940" width="100" height="50" as="geometry"/>
                </mxCell>
                <mxCell id="474" value="&quot;what code paths were discovered and tested&quot;,p74" style="shape=document;whiteSpace=wrap;html=1;boundedLbl=1;size=0.2;" vertex="1" parent="32">
                    <mxGeometry x="52.5" y="4320" width="120" height="50" as="geometry"/>
                </mxCell>
                <mxCell id="480" style="edgeStyle=none;html=1;dashed=1;endArrow=none;endFill=0;startArrow=open;startFill=0;entryX=0.625;entryY=0.88;entryDx=0;entryDy=0;entryPerimeter=0;" edge="1" parent="32" source="481" target="474">
                    <mxGeometry relative="1" as="geometry">
                        <mxPoint x="130.5" y="4380" as="targetPoint"/>
                    </mxGeometry>
                </mxCell>
                <mxCell id="481" value="&quot; To demonstrate code coverage to the application owner, the tester can start with a spreadsheet and document all the&lt;br/&gt; links discovered by spidering the application (either manually or automatically). Then the tester can look more closely&lt;br/&gt; at decision points in the application and investigate how many significant code paths are discovered. These should&lt;br/&gt; then be documented in the spreadsheet with URLs, prose and screenshot descriptions of the paths discovered.&quot;, p74" style="shape=note;whiteSpace=wrap;html=1;backgroundOutline=1;darkOpacity=0.05;align=left;fontSize=6;size=13;" vertex="1" parent="32">
                    <mxGeometry x="27.5" y="4398" width="170" height="140" as="geometry"/>
                </mxCell>
                <mxCell id="53" value="" style="edgeStyle=none;html=1;" parent="1" source="51" target="52" edge="1">
                    <mxGeometry relative="1" as="geometry"/>
                </mxCell>
                <mxCell id="56" value="" style="edgeStyle=none;html=1;" parent="1" source="28" target="54" edge="1">
                    <mxGeometry relative="1" as="geometry"/>
                </mxCell>
                <mxCell id="58" value="" style="edgeStyle=none;html=1;" parent="1" source="50" target="57" edge="1">
                    <mxGeometry relative="1" as="geometry"/>
                </mxCell>
                <mxCell id="59" style="edgeStyle=none;html=1;entryX=0.022;entryY=0.821;entryDx=0;entryDy=0;entryPerimeter=0;" parent="1" source="46" target="57" edge="1">
                    <mxGeometry relative="1" as="geometry">
                        <mxPoint x="1560" y="1506.8600000000001" as="targetPoint"/>
                    </mxGeometry>
                </mxCell>
                <mxCell id="62" style="edgeStyle=none;html=1;exitX=0.257;exitY=0.963;exitDx=0;exitDy=0;exitPerimeter=0;entryX=0;entryY=0.5;entryDx=0;entryDy=0;" parent="1" source="52" target="61" edge="1">
                    <mxGeometry relative="1" as="geometry"/>
                </mxCell>
                <mxCell id="78" value="System designers" style="swimlane;whiteSpace=wrap;html=1;startSize=30;" parent="1" vertex="1">
                    <mxGeometry x="2310" y="200" width="200" height="10000" as="geometry"/>
                </mxCell>
                <mxCell id="355" value="" style="shape=link;html=1;strokeColor=#33FF33;" parent="78" edge="1">
                    <mxGeometry width="100" relative="1" as="geometry">
                        <mxPoint x="-2996.33" y="1890" as="sourcePoint"/>
                        <mxPoint x="856.3368294270836" y="1890.1399999999999" as="targetPoint"/>
                    </mxGeometry>
                </mxCell>
                <mxCell id="11" value="" style="endArrow=classic;startArrow=classic;html=1;" parent="78" edge="1">
                    <mxGeometry width="50" height="50" relative="1" as="geometry">
                        <mxPoint x="-3036.33" y="1960" as="sourcePoint"/>
                        <mxPoint x="-3036.33" y="1880" as="targetPoint"/>
                    </mxGeometry>
                </mxCell>
                <mxCell id="12" value="Design" style="edgeLabel;html=1;align=center;verticalAlign=middle;resizable=0;points=[];" parent="11" vertex="1" connectable="0">
                    <mxGeometry x="0.052" y="-4" relative="1" as="geometry">
                        <mxPoint x="-4" y="2" as="offset"/>
                    </mxGeometry>
                </mxCell>
                <mxCell id="385" style="edgeStyle=none;html=1;entryX=0.5;entryY=0;entryDx=0;entryDy=0;" parent="78" source="379" target="380" edge="1">
                    <mxGeometry relative="1" as="geometry"/>
                </mxCell>
                <mxCell id="379" value="Confirm an exact understanding of how the application works p37" style="rounded=1;whiteSpace=wrap;html=1;" parent="78" vertex="1">
                    <mxGeometry x="40" y="1990" width="120" height="60" as="geometry"/>
                </mxCell>
                <mxCell id="91" value="Develop and document threat models, p18" style="rounded=1;whiteSpace=wrap;html=1;absoluteArcSize=1;arcSize=14;strokeWidth=2;" parent="78" vertex="1">
                    <mxGeometry x="50" y="2280" width="100" height="100" as="geometry"/>
                </mxCell>
                <mxCell id="380" value="Weaknesses discovered, p37" style="rhombus;whiteSpace=wrap;html=1;" parent="78" vertex="1">
                    <mxGeometry x="60" y="2070" width="80" height="80" as="geometry"/>
                </mxCell>
                <mxCell id="96" value="&quot; It is recommended that all applications&lt;br/&gt; have a threat model developed and documented. Threat models should be created as early as possible in the SDLC,&lt;br/&gt; and should be revisited as the application evolves and development progresses.&quot;, p18" style="shape=note;whiteSpace=wrap;html=1;backgroundOutline=1;darkOpacity=0.05;align=left;fontSize=6;size=13;" parent="78" vertex="1">
                    <mxGeometry x="-330" y="7381.14" width="90" height="80" as="geometry"/>
                </mxCell>
                <mxCell id="98" value="Develop and document threat models, p18" style="rounded=1;whiteSpace=wrap;html=1;absoluteArcSize=1;arcSize=14;strokeWidth=2;" parent="78" vertex="1">
                    <mxGeometry x="50" y="7230" width="100" height="100" as="geometry"/>
                </mxCell>
                <mxCell id="80" value="Is interviewed as part of manual inspection, p18" style="rounded=1;whiteSpace=wrap;html=1;absoluteArcSize=1;arcSize=14;strokeWidth=2;" parent="78" vertex="1">
                    <mxGeometry x="71" y="7030" width="100" height="100" as="geometry"/>
                </mxCell>
                <mxCell id="120" value="T" style="endArrow=classic;startArrow=classic;html=1;" parent="1" edge="1">
                    <mxGeometry width="50" height="50" relative="1" as="geometry">
                        <mxPoint x="-720" y="4160" as="sourcePoint"/>
                        <mxPoint x="-720" y="4080" as="targetPoint"/>
                    </mxGeometry>
                </mxCell>
                <mxCell id="121" value="Testing &lt;br&gt;(system &lt;br&gt;level)" style="edgeLabel;html=1;align=center;verticalAlign=middle;resizable=0;points=[];" parent="120" vertex="1" connectable="0">
                    <mxGeometry x="0.052" y="-4" relative="1" as="geometry">
                        <mxPoint x="-4" y="2" as="offset"/>
                    </mxGeometry>
                </mxCell>
                <mxCell id="134" style="edgeStyle=none;html=1;exitX=1;exitY=0.5;exitDx=0;exitDy=0;entryX=0;entryY=0.5;entryDx=0;entryDy=0;entryPerimeter=0;" parent="1" source="129" target="131" edge="1">
                    <mxGeometry relative="1" as="geometry"/>
                </mxCell>
                <mxCell id="135" value="No" style="edgeLabel;html=1;align=center;verticalAlign=middle;resizable=0;points=[];" parent="134" vertex="1" connectable="0">
                    <mxGeometry x="-0.777" y="-2" relative="1" as="geometry">
                        <mxPoint as="offset"/>
                    </mxGeometry>
                </mxCell>
                <mxCell id="149" style="edgeStyle=none;html=1;entryX=0.501;entryY=0.886;entryDx=0;entryDy=0;entryPerimeter=0;" parent="1" source="145" target="108" edge="1">
                    <mxGeometry relative="1" as="geometry"/>
                </mxCell>
                <mxCell id="160" value="Build master (Sr. dev/Op.)" style="swimlane;whiteSpace=wrap;html=1;startSize=30;" parent="1" vertex="1">
                    <mxGeometry x="1510" y="200" width="200" height="10000" as="geometry">
                        <mxRectangle x="1110" y="200" width="180" height="30" as="alternateBounds"/>
                    </mxGeometry>
                </mxCell>
                <mxCell id="161" style="edgeStyle=none;html=1;entryX=0.75;entryY=1;entryDx=0;entryDy=0;dashed=1;endArrow=none;endFill=0;startArrow=open;startFill=0;" parent="160" edge="1">
                    <mxGeometry relative="1" as="geometry">
                        <mxPoint x="115" y="1486.8600000000001" as="targetPoint"/>
                    </mxGeometry>
                </mxCell>
                <mxCell id="171" value="&quot;The guidelines describe the build master as the person who reviews test results reported by developers (such as results from static and dynamic analysis), and then grants approval for checking code changes into the application build. This role is generally filled by a senior developer or someone responsible for the build process&quot;" style="shape=note;whiteSpace=wrap;html=1;backgroundOutline=1;darkOpacity=0.05;align=left;fontSize=6;size=13;" parent="1" vertex="1">
                    <mxGeometry x="1520" y="50" width="140" height="75" as="geometry"/>
                </mxCell>
                <mxCell id="172" style="edgeStyle=none;html=1;entryX=0.5;entryY=1;entryDx=0;entryDy=0;dashed=1;endArrow=none;endFill=0;startArrow=open;startFill=0;entryPerimeter=0;exitX=0.461;exitY=0;exitDx=0;exitDy=0;exitPerimeter=0;" parent="1" source="160" target="171" edge="1">
                    <mxGeometry relative="1" as="geometry">
                        <mxPoint x="1415" y="60" as="targetPoint"/>
                    </mxGeometry>
                </mxCell>
                <mxCell id="176" value="Developers" style="swimlane;whiteSpace=wrap;html=1;startSize=30;" parent="1" vertex="1">
                    <mxGeometry x="1110" y="200" width="200" height="10000" as="geometry"/>
                </mxCell>
                <mxCell id="180" value="Report test results, p29" style="rounded=1;whiteSpace=wrap;html=1;absoluteArcSize=1;arcSize=14;strokeWidth=2;" parent="176" vertex="1">
                    <mxGeometry x="40" y="3600" width="100" height="100" as="geometry"/>
                </mxCell>
                <mxCell id="145" value="Validate source code, p29" style="rounded=1;whiteSpace=wrap;html=1;absoluteArcSize=1;arcSize=14;strokeWidth=2;" parent="176" vertex="1">
                    <mxGeometry x="250" y="3690" width="100" height="100" as="geometry"/>
                </mxCell>
                <mxCell id="169" value="Formally accept secure code validation, p29" style="rounded=1;whiteSpace=wrap;html=1;absoluteArcSize=1;arcSize=14;strokeWidth=2;" parent="176" vertex="1">
                    <mxGeometry x="440" y="3690" width="100" height="100" as="geometry"/>
                </mxCell>
                <mxCell id="174" style="edgeStyle=none;html=1;" parent="176" source="145" target="169" edge="1">
                    <mxGeometry relative="1" as="geometry"/>
                </mxCell>
                <mxCell id="89" value="Manual inspection (&quot;&lt;font color=&quot;#000000&quot;&gt;&lt;span style=&quot;background-color: transparent;&quot;&gt;how something works and why it was implemented in a specific&lt;br&gt;&lt;/span&gt;&lt;span style=&quot;background-color: transparent;&quot;&gt;&amp;nbsp;way, the tester can quickly determine if any security concerns are likely to be evident&lt;/span&gt;&lt;/font&gt;&quot;), p18" style="rounded=1;whiteSpace=wrap;html=1;absoluteArcSize=1;arcSize=14;strokeWidth=2;" parent="176" vertex="1">
                    <mxGeometry x="20" y="3420" width="160" height="140.86" as="geometry"/>
                </mxCell>
                <mxCell id="106" value="&quot;Source code review is the process of manually checking the source code of a web application for security issues. /.../ the source code should be made available for testing purposes&quot;, p19, &quot;secure code analysis and reviews focus on identifying security issues in source code during&lt;br&gt; development&quot;, p24, &quot;validated through secure code reviews during the development phase of the SDLC&quot;, p25, &quot; The validation of source code before integration in application builds is usually the responsibility of the senior developer /.../  During this phase [full syste testing], it is possible for&lt;br/&gt; security testers to determine whether vulnerabilities can be exploited. These include common web application&lt;br/&gt; vulnerabilities, as well as security issues that have been identified earlier in the SDLC with other activities such as&lt;br/&gt; threat modeling, source code analysis, and secure code reviews.&quot;, p29," style="shape=note;whiteSpace=wrap;html=1;backgroundOutline=1;darkOpacity=0.05;align=left;fontSize=6;size=13;" parent="176" vertex="1">
                    <mxGeometry x="5" y="3277.14" width="190" height="130" as="geometry"/>
                </mxCell>
                <mxCell id="45" value="Source code review &amp;amp; analysis, p17, p29" style="rounded=1;whiteSpace=wrap;html=1;absoluteArcSize=1;arcSize=14;strokeWidth=2;" parent="176" vertex="1">
                    <mxGeometry x="30" y="3160" width="100" height="100" as="geometry"/>
                </mxCell>
                <mxCell id="44" value="run security test cases, p30" style="rounded=1;whiteSpace=wrap;html=1;absoluteArcSize=1;arcSize=14;strokeWidth=2;" parent="176" vertex="1">
                    <mxGeometry x="80" y="3040" width="100" height="50" as="geometry"/>
                </mxCell>
                <mxCell id="105" style="edgeStyle=none;html=1;dashed=1;endArrow=none;endFill=0;startArrow=open;startFill=0;" parent="176" source="106" target="45" edge="1">
                    <mxGeometry relative="1" as="geometry">
                        <mxPoint x="307" y="3194.86" as="targetPoint"/>
                    </mxGeometry>
                </mxCell>
                <mxCell id="246" value="fix all high risk vulnerabilities, p29" style="rounded=1;whiteSpace=wrap;html=1;absoluteArcSize=1;arcSize=14;strokeWidth=2;" parent="176" vertex="1">
                    <mxGeometry x="28.75" y="5020" width="142.5" height="120" as="geometry"/>
                </mxCell>
                <mxCell id="253" value="Develop based on secure coding standards requirements, p30&amp;nbsp;" style="rounded=1;whiteSpace=wrap;html=1;absoluteArcSize=1;arcSize=14;strokeWidth=2;" parent="176" vertex="1">
                    <mxGeometry x="50" y="2930" width="100" height="100" as="geometry"/>
                </mxCell>
                <mxCell id="258" value="Dynamic testing/debugging, p17, p30" style="rounded=1;whiteSpace=wrap;html=1;absoluteArcSize=1;arcSize=14;strokeWidth=2;" parent="176" vertex="1">
                    <mxGeometry x="20" y="3100" width="100" height="50" as="geometry"/>
                </mxCell>
                <mxCell id="294" value="Application system tests, p31" style="rounded=1;whiteSpace=wrap;html=1;absoluteArcSize=1;arcSize=14;strokeWidth=2;" parent="176" vertex="1">
                    <mxGeometry x="35" y="4630" width="130" height="82" as="geometry"/>
                </mxCell>
                <mxCell id="295" style="edgeStyle=none;html=1;dashed=1;endArrow=none;endFill=0;startArrow=open;startFill=0;entryX=0.527;entryY=0.006;entryDx=0;entryDy=0;entryPerimeter=0;" parent="176" source="296" target="294" edge="1">
                    <mxGeometry relative="1" as="geometry">
                        <mxPoint x="133" y="4440" as="targetPoint"/>
                    </mxGeometry>
                </mxCell>
                <mxCell id="296" value="&quot;Including security testing in the integration and validation phase is critical to identifying vulnerabilities due to integration&lt;br/&gt; of components, as well as validating the exposure of such vulnerabilities. Application security testing requires a specialized set of skills, including both software and security knowledge, that are not typical of security engineers. As a&lt;br&gt; result, organizations are often required to security-train their software developers on ethical hacking techniques, and&lt;br&gt; security assessment procedures and tools.&quot;, p31" style="shape=note;whiteSpace=wrap;html=1;backgroundOutline=1;darkOpacity=0.05;align=left;fontSize=6;size=13;" parent="176" vertex="1">
                    <mxGeometry x="15" y="4540" width="170" height="70" as="geometry"/>
                </mxCell>
                <mxCell id="65" value="&quot;... test the security implications of people, policies, and processes /.../ can also include inspection of technology decisions such as architectural designs /.../ They are&lt;br&gt; usually conducted by analyzing documentation or performing interviews with the designers or system owners /.../ Manual inspections and reviews&lt;br&gt; are one of the few ways to test the software development life-cycle process itself and to ensure that there is an&lt;br&gt; adequate policy or skill set in place. /.../ reviewing the documentation, secure coding policies, security requirements, and&lt;br/&gt; architectural designs, should all be accomplished using manual inspections.&quot;, p18, read &quot;&lt;span style=&quot;background-color: transparent;&quot;&gt;&lt;font color=&quot;#000000&quot;&gt;Manual Inspections and Reviews&lt;/font&gt;&lt;/span&gt;&lt;br&gt;&quot;" style="shape=note;whiteSpace=wrap;html=1;backgroundOutline=1;darkOpacity=0.05;align=left;fontSize=6;size=10;" parent="176" vertex="1">
                    <mxGeometry x="-165" y="7310" width="130" height="150" as="geometry"/>
                </mxCell>
                <mxCell id="63" value="Manual inspection (inspect documentation &amp;amp; conduct interviews), p18" style="rounded=1;whiteSpace=wrap;html=1;absoluteArcSize=1;arcSize=14;strokeWidth=2;" parent="176" vertex="1">
                    <mxGeometry x="-165" y="7190" width="100" height="100" as="geometry"/>
                </mxCell>
                <mxCell id="299" value="&quot;Application security testing requires a specialized set of skills, including both software and security knowledge, that are not typical of security engineers. As a result, organizations are often required to security-train their software developers on ethical hacking techniques, and security assessment procedures and tools.&quot;, p31" style="shape=note;whiteSpace=wrap;html=1;backgroundOutline=1;darkOpacity=0.05;align=left;fontSize=6;size=13;" parent="176" vertex="1">
                    <mxGeometry x="15" y="7254" width="170" height="60" as="geometry"/>
                </mxCell>
                <mxCell id="297" value="Security training, p31" style="rounded=1;whiteSpace=wrap;html=1;absoluteArcSize=1;arcSize=14;strokeWidth=2;" parent="176" vertex="1">
                    <mxGeometry x="35" y="7334" width="130" height="82" as="geometry"/>
                </mxCell>
                <mxCell id="64" style="edgeStyle=none;html=1;entryX=0.481;entryY=0.996;entryDx=0;entryDy=0;dashed=1;endArrow=none;endFill=0;startArrow=open;startFill=0;entryPerimeter=0;" parent="176" source="65" target="63" edge="1">
                    <mxGeometry relative="1" as="geometry">
                        <mxPoint x="97" y="6184" as="targetPoint"/>
                    </mxGeometry>
                </mxCell>
                <mxCell id="298" style="edgeStyle=none;html=1;dashed=1;endArrow=none;endFill=0;startArrow=open;startFill=0;entryX=0.527;entryY=0.006;entryDx=0;entryDy=0;entryPerimeter=0;" parent="176" source="299" target="297" edge="1">
                    <mxGeometry relative="1" as="geometry">
                        <mxPoint x="143" y="6974" as="targetPoint"/>
                    </mxGeometry>
                </mxCell>
                <mxCell id="185" value="Check in code in application build, p29" style="rounded=1;whiteSpace=wrap;html=1;absoluteArcSize=1;arcSize=14;strokeWidth=2;" parent="1" vertex="1">
                    <mxGeometry x="1360" y="4010" width="100" height="55" as="geometry"/>
                </mxCell>
                <mxCell id="109" style="edgeStyle=none;html=1;entryX=0;entryY=0.5;entryDx=0;entryDy=0;entryPerimeter=0;" parent="1" source="45" target="108" edge="1">
                    <mxGeometry relative="1" as="geometry">
                        <mxPoint x="1050" y="3390.86" as="targetPoint"/>
                    </mxGeometry>
                </mxCell>
                <mxCell id="194" style="edgeStyle=none;html=1;entryX=0.154;entryY=1.015;entryDx=0;entryDy=0;entryPerimeter=0;" parent="1" source="186" target="108" edge="1">
                    <mxGeometry relative="1" as="geometry"/>
                </mxCell>
                <mxCell id="146" style="edgeStyle=none;html=1;dashed=1;endArrow=none;endFill=0;startArrow=open;startFill=0;entryX=0.5;entryY=0;entryDx=0;entryDy=0;" parent="1" source="147" target="145" edge="1">
                    <mxGeometry relative="1" as="geometry">
                        <mxPoint x="1222" y="3580" as="targetPoint"/>
                    </mxGeometry>
                </mxCell>
                <mxCell id="198" style="edgeStyle=none;html=1;entryX=0;entryY=0.5;entryDx=0;entryDy=0;entryPerimeter=0;" parent="1" source="195" target="197" edge="1">
                    <mxGeometry relative="1" as="geometry"/>
                </mxCell>
                <mxCell id="201" value="Operational environment of system" style="swimlane;whiteSpace=wrap;html=1;startSize=30;swimlaneFillColor=default;fillStyle=solid;" parent="1" vertex="1">
                    <mxGeometry x="510" y="200" width="200" height="10000" as="geometry"/>
                </mxCell>
                <mxCell id="224" value="&lt;span style=&quot;color: rgb(0, 0, 0);&quot;&gt;System code in operational environment of system&lt;/span&gt;" style="strokeWidth=2;html=1;shape=mxgraph.flowchart.document2;whiteSpace=wrap;size=0.13095252627418005;verticalAlign=top;" parent="201" vertex="1">
                    <mxGeometry x="50" y="4570" width="100" height="80" as="geometry"/>
                </mxCell>
                <mxCell id="240" value="&lt;span style=&quot;color: rgb(0, 0, 0);&quot;&gt;information risk management procedures, p29&lt;/span&gt;" style="strokeWidth=2;html=1;shape=mxgraph.flowchart.document2;whiteSpace=wrap;size=0.13095252627418005;verticalAlign=top;" parent="201" vertex="1">
                    <mxGeometry x="60" y="4880" width="100" height="70" as="geometry"/>
                </mxCell>
                <mxCell id="282" value="Ethical hacking tests run (manually and autoamtically), p31" style="rounded=1;whiteSpace=wrap;html=1;absoluteArcSize=1;arcSize=14;strokeWidth=2;" parent="201" vertex="1">
                    <mxGeometry x="40" y="3920" width="130" height="82" as="geometry"/>
                </mxCell>
                <mxCell id="204" value="3rd party" style="swimlane;whiteSpace=wrap;html=1;startSize=30;swimlaneFillColor=default;" parent="1" vertex="1">
                    <mxGeometry x="-290" y="200" width="200" height="10000" as="geometry"/>
                </mxCell>
                <mxCell id="232" value="White hackers / security consultants are responsible for security testing, p29" style="rounded=1;whiteSpace=wrap;html=1;absoluteArcSize=1;arcSize=14;strokeWidth=2;" parent="204" vertex="1">
                    <mxGeometry x="57.5" y="4660" width="85" height="100" as="geometry"/>
                </mxCell>
                <mxCell id="233" value="Auditing full system and processes, p29" style="rounded=1;whiteSpace=wrap;html=1;absoluteArcSize=1;arcSize=14;strokeWidth=2;" parent="204" vertex="1">
                    <mxGeometry x="57.5" y="4770" width="85" height="100" as="geometry"/>
                </mxCell>
                <mxCell id="239" value="Auditors &amp;amp; info. security officers discuss if the changes are safe enough to be released and analyses according to information risk management procedures, p29" style="rounded=1;whiteSpace=wrap;html=1;absoluteArcSize=1;arcSize=14;strokeWidth=2;" parent="204" vertex="1">
                    <mxGeometry x="28.75" y="4880" width="142.5" height="120" as="geometry"/>
                </mxCell>
                <mxCell id="226" style="edgeStyle=none;html=1;entryX=1;entryY=0.25;entryDx=0;entryDy=0;entryPerimeter=0;" parent="1" source="225" target="224" edge="1">
                    <mxGeometry relative="1" as="geometry"/>
                </mxCell>
                <mxCell id="227" value="QA testers" style="swimlane;whiteSpace=wrap;html=1;startSize=30;swimlaneFillColor=default;fillStyle=solid;" parent="1" vertex="1">
                    <mxGeometry x="110" y="200" width="200" height="10000" as="geometry"/>
                </mxCell>
                <mxCell id="229" value="QA testers are responsible for functional testing of full system, p29" style="rounded=1;whiteSpace=wrap;html=1;absoluteArcSize=1;arcSize=14;strokeWidth=2;" parent="227" vertex="1">
                    <mxGeometry x="57.5" y="4580" width="85" height="100" as="geometry"/>
                </mxCell>
                <mxCell id="231" style="edgeStyle=none;html=1;entryX=0.985;entryY=0.131;entryDx=0;entryDy=0;entryPerimeter=0;" parent="1" source="224" target="229" edge="1">
                    <mxGeometry relative="1" as="geometry"/>
                </mxCell>
                <mxCell id="235" value="Information security officers / security engineer" style="swimlane;whiteSpace=wrap;html=1;startSize=30;" parent="1" vertex="1">
                    <mxGeometry x="-90" y="200" width="200" height="10000" as="geometry"/>
                </mxCell>
                <mxCell id="245" style="edgeStyle=none;html=1;exitX=0.5;exitY=1;exitDx=0;exitDy=0;entryX=0.5;entryY=0;entryDx=0;entryDy=0;" parent="235" source="241" target="244" edge="1">
                    <mxGeometry relative="1" as="geometry"/>
                </mxCell>
                <mxCell id="241" value="Auditors &amp;amp; info. security officers discuss if the changes are safe enough to be released and analyses according to information risk management procedures, p29" style="rounded=1;whiteSpace=wrap;html=1;absoluteArcSize=1;arcSize=14;strokeWidth=2;" parent="235" vertex="1">
                    <mxGeometry x="28.75" y="4880" width="142.5" height="120" as="geometry"/>
                </mxCell>
                <mxCell id="328" style="edgeStyle=none;html=1;" parent="235" source="244" target="329" edge="1">
                    <mxGeometry relative="1" as="geometry">
                        <mxPoint x="78.18181818181824" y="5150" as="targetPoint"/>
                    </mxGeometry>
                </mxCell>
                <mxCell id="244" value="Secure enough and accept vulnerabilities?" style="rhombus;whiteSpace=wrap;html=1;" parent="235" vertex="1">
                    <mxGeometry x="60" y="5050" width="80" height="80" as="geometry"/>
                </mxCell>
                <mxCell id="273" value="Develop &quot;Unit level security test cases&quot;, p30" style="rounded=1;whiteSpace=wrap;html=1;absoluteArcSize=1;arcSize=14;strokeWidth=2;" parent="235" vertex="1">
                    <mxGeometry x="50" y="810.0000000000002" width="100" height="100" as="geometry"/>
                </mxCell>
                <mxCell id="275" style="edgeStyle=none;html=1;entryX=0.5;entryY=1;entryDx=0;entryDy=0;dashed=1;" parent="235" source="274" target="273" edge="1">
                    <mxGeometry relative="1" as="geometry"/>
                </mxCell>
                <mxCell id="274" value="&quot; Unit level security test cases can be developed by a security engineer who is the subject matter expert in software&lt;br/&gt; security and is also responsible for validating that the security issues in the source code have been fixed and can be&lt;br/&gt; checked in to the integrated system build.&quot;, p30" style="shape=note;whiteSpace=wrap;html=1;backgroundOutline=1;darkOpacity=0.05;" parent="235" vertex="1">
                    <mxGeometry x="5" y="941" width="190" height="159" as="geometry"/>
                </mxCell>
                <mxCell id="329" value="&quot;A measure of risk (e.g., high, medium, low) for the vulnerability can be calculated by determining the exposure and&lt;br/&gt; likelihood factors, and by validating the vulnerability with penetration tests. /.../ The risk metrics associated to vulnerabilities&lt;br/&gt; found with security tests empower business management to make risk management decisions, such as to decide&lt;br/&gt; whether risks can be accepted, mitigated, or transferred at different levels within the organization (e.g., business as well&lt;br/&gt; as technical risks).&quot;, p32" style="shape=note;whiteSpace=wrap;html=1;backgroundOutline=1;darkOpacity=0.05;align=left;fontSize=6;size=13;" parent="235" vertex="1">
                    <mxGeometry x="5" y="5150" width="170" height="70" as="geometry"/>
                </mxCell>
                <mxCell id="242" style="edgeStyle=none;html=1;entryX=0;entryY=0.5;entryDx=0;entryDy=0;" parent="1" source="239" target="241" edge="1">
                    <mxGeometry relative="1" as="geometry"/>
                </mxCell>
                <mxCell id="243" style="edgeStyle=none;html=1;entryX=1;entryY=0.5;entryDx=0;entryDy=0;" parent="1" source="240" target="241" edge="1">
                    <mxGeometry relative="1" as="geometry"/>
                </mxCell>
                <mxCell id="247" style="edgeStyle=none;html=1;exitX=1;exitY=0.5;exitDx=0;exitDy=0;entryX=0.014;entryY=0.585;entryDx=0;entryDy=0;entryPerimeter=0;" parent="1" source="244" target="246" edge="1">
                    <mxGeometry relative="1" as="geometry"/>
                </mxCell>
                <mxCell id="248" value="No" style="edgeLabel;html=1;align=center;verticalAlign=middle;resizable=0;points=[];" parent="247" vertex="1" connectable="0">
                    <mxGeometry x="-0.9291" y="-1" relative="1" as="geometry">
                        <mxPoint as="offset"/>
                    </mxGeometry>
                </mxCell>
                <mxCell id="249" value="Operations" style="swimlane;whiteSpace=wrap;html=1;startSize=30;" parent="1" vertex="1">
                    <mxGeometry x="2710" y="200" width="200" height="10000" as="geometry"/>
                </mxCell>
                <mxCell id="251" style="edgeStyle=none;html=1;exitX=0.5;exitY=1;exitDx=0;exitDy=0;" parent="1" source="244" target="250" edge="1">
                    <mxGeometry relative="1" as="geometry"/>
                </mxCell>
                <mxCell id="252" value="Yes" style="edgeLabel;html=1;align=center;verticalAlign=middle;resizable=0;points=[];" parent="251" vertex="1" connectable="0">
                    <mxGeometry x="-0.9446" y="-3" relative="1" as="geometry">
                        <mxPoint x="1" as="offset"/>
                    </mxGeometry>
                </mxCell>
                <mxCell id="255" style="edgeStyle=none;html=1;entryX=1;entryY=0.5;entryDx=0;entryDy=0;" parent="1" source="254" target="253" edge="1">
                    <mxGeometry relative="1" as="geometry"/>
                </mxCell>
                <mxCell id="265" value="&lt;div&gt;&lt;font color=&quot;#000000&quot;&gt;Security test data&lt;/font&gt;&lt;/div&gt;&lt;div&gt;&lt;font color=&quot;#000000&quot;&gt;&amp;nbsp;stakeholders&lt;/font&gt;&lt;/div&gt;" style="swimlane;whiteSpace=wrap;html=1;startSize=30;" parent="1" vertex="1">
                    <mxGeometry x="710" y="200" width="200" height="10000" as="geometry"/>
                </mxCell>
                <mxCell id="130" value="Add US to sprint for development" style="rounded=1;whiteSpace=wrap;html=1;absoluteArcSize=1;arcSize=14;strokeWidth=2;" parent="265" vertex="1">
                    <mxGeometry x="50" y="2940" width="100" height="100" as="geometry"/>
                </mxCell>
                <mxCell id="129" value="High or medium risk vulnerabilities, p25" style="rhombus;whiteSpace=wrap;html=1;" parent="265" vertex="1">
                    <mxGeometry x="60" y="2775" width="80" height="80" as="geometry"/>
                </mxCell>
                <mxCell id="132" style="edgeStyle=none;html=1;exitX=0.5;exitY=1;exitDx=0;exitDy=0;entryX=0.5;entryY=0;entryDx=0;entryDy=0;" parent="265" source="129" target="130" edge="1">
                    <mxGeometry relative="1" as="geometry"/>
                </mxCell>
                <mxCell id="133" value="Yes" style="edgeLabel;html=1;align=center;verticalAlign=middle;resizable=0;points=[];" parent="132" vertex="1" connectable="0">
                    <mxGeometry x="-0.4185" y="2" relative="1" as="geometry">
                        <mxPoint as="offset"/>
                    </mxGeometry>
                </mxCell>
                <mxCell id="13" value="" style="endArrow=classic;startArrow=classic;html=1;" parent="1" edge="1">
                    <mxGeometry width="50" height="50" relative="1" as="geometry">
                        <mxPoint x="-720" y="3200" as="sourcePoint"/>
                        <mxPoint x="-720" y="3120" as="targetPoint"/>
                    </mxGeometry>
                </mxCell>
                <mxCell id="14" value="Develop" style="edgeLabel;html=1;align=center;verticalAlign=middle;resizable=0;points=[];" parent="13" vertex="1" connectable="0">
                    <mxGeometry x="0.052" y="-4" relative="1" as="geometry">
                        <mxPoint x="-4" y="2" as="offset"/>
                    </mxGeometry>
                </mxCell>
                <mxCell id="182" value="" style="edgeStyle=none;html=1;" parent="1" source="180" target="181" edge="1">
                    <mxGeometry relative="1" as="geometry"/>
                </mxCell>
                <mxCell id="184" style="edgeStyle=none;html=1;" parent="1" source="181" target="145" edge="1">
                    <mxGeometry relative="1" as="geometry"/>
                </mxCell>
                <mxCell id="183" value="" style="edgeStyle=none;html=1;entryX=0.75;entryY=0;entryDx=0;entryDy=0;" parent="1" source="181" target="169" edge="1">
                    <mxGeometry relative="1" as="geometry"/>
                </mxCell>
                <mxCell id="175" value="" style="edgeStyle=none;html=1;" parent="1" source="169" target="173" edge="1">
                    <mxGeometry relative="1" as="geometry"/>
                </mxCell>
                <mxCell id="293" style="edgeStyle=none;html=1;entryX=0;entryY=0.5;entryDx=0;entryDy=0;" parent="1" source="282" target="292" edge="1">
                    <mxGeometry relative="1" as="geometry"/>
                </mxCell>
                <mxCell id="307" value="User test environment" style="swimlane;whiteSpace=wrap;html=1;startSize=30;" parent="1" vertex="1">
                    <mxGeometry x="310" y="200" width="200" height="10000" as="geometry"/>
                </mxCell>
                <mxCell id="314" value="&lt;div&gt;&lt;font color=&quot;#000000&quot;&gt;user&lt;/font&gt;&lt;/div&gt;&lt;div&gt;&lt;font color=&quot;#000000&quot;&gt;&amp;nbsp;acceptance test (UAT), p31&lt;/font&gt;&lt;/div&gt;" style="rounded=1;whiteSpace=wrap;html=1;absoluteArcSize=1;arcSize=14;strokeWidth=2;" parent="307" vertex="1">
                    <mxGeometry x="70" y="5170" width="85" height="60" as="geometry"/>
                </mxCell>
                <mxCell id="318" style="edgeStyle=none;html=1;dashed=1;endArrow=none;endFill=0;startArrow=open;startFill=0;entryX=0.428;entryY=0.983;entryDx=0;entryDy=0;entryPerimeter=0;exitX=0;exitY=0;exitDx=78.5;exitDy=0;exitPerimeter=0;" parent="307" source="319" target="314" edge="1">
                    <mxGeometry relative="1" as="geometry">
                        <mxPoint x="104" y="5340" as="targetPoint"/>
                    </mxGeometry>
                </mxCell>
                <mxCell id="319" value="&quot; The next level of security testing after integration system tests is to perform security tests in the user acceptance&lt;br&gt; environment. /.../  A characteristic of security testing in UAT is testing for&lt;br/&gt; security configuration issues&quot;, p31" style="shape=note;whiteSpace=wrap;html=1;backgroundOutline=1;darkOpacity=0.05;align=left;fontSize=6;size=13;" parent="307" vertex="1">
                    <mxGeometry x="15" y="5250" width="170" height="70" as="geometry"/>
                </mxCell>
                <mxCell id="320" value="&lt;div&gt;&lt;font color=&quot;#000000&quot;&gt;user&lt;/font&gt;&lt;/div&gt;&lt;div&gt;&lt;font color=&quot;#000000&quot;&gt;&amp;nbsp;acceptance test (UAT), p31&lt;/font&gt;&lt;/div&gt;" style="rounded=1;whiteSpace=wrap;html=1;absoluteArcSize=1;arcSize=14;strokeWidth=2;" parent="307" vertex="1">
                    <mxGeometry x="61" y="5330" width="85" height="60" as="geometry"/>
                </mxCell>
                <mxCell id="321" style="edgeStyle=none;html=1;dashed=1;endArrow=none;endFill=0;startArrow=open;startFill=0;entryX=0.655;entryY=0.995;entryDx=0;entryDy=0;entryPerimeter=0;exitX=0.448;exitY=-0.05;exitDx=0;exitDy=0;exitPerimeter=0;" parent="307" source="320" target="319" edge="1">
                    <mxGeometry relative="1" as="geometry">
                        <mxPoint x="116" y="5239" as="targetPoint"/>
                        <mxPoint x="104" y="5260" as="sourcePoint"/>
                    </mxGeometry>
                </mxCell>
                <mxCell id="315" value="" style="shape=link;html=1;strokeColor=#33FF33;" parent="1" edge="1">
                    <mxGeometry width="100" relative="1" as="geometry">
                        <mxPoint x="-690" y="3110.86" as="sourcePoint"/>
                        <mxPoint x="3540" y="3120" as="targetPoint"/>
                    </mxGeometry>
                </mxCell>
                <mxCell id="317" value="" style="shape=link;html=1;strokeColor=#33FF33;" parent="1" edge="1">
                    <mxGeometry width="100" relative="1" as="geometry">
                        <mxPoint x="-690" y="4080" as="sourcePoint"/>
                        <mxPoint x="3300" y="4100" as="targetPoint"/>
                    </mxGeometry>
                </mxCell>
                <mxCell id="332" style="edgeStyle=none;html=1;entryX=0;entryY=0.5;entryDx=0;entryDy=0;entryPerimeter=0;" parent="1" source="330" target="331" edge="1">
                    <mxGeometry relative="1" as="geometry"/>
                </mxCell>
                <mxCell id="348" value="&quot; The stakeholders can include project managers, developers, information security offices, auditors, and&lt;br/&gt; chief information officers. The value can be in terms of the business case that each project stakeholder has, in terms of&lt;br/&gt; role and responsibility.&quot;, p34" style="shape=note;whiteSpace=wrap;html=1;backgroundOutline=1;darkOpacity=0.05;align=left;fontSize=6;size=13;" parent="1" vertex="1">
                    <mxGeometry x="740" y="70" width="140" height="75" as="geometry"/>
                </mxCell>
                <mxCell id="349" style="edgeStyle=none;html=1;entryX=0.5;entryY=1;entryDx=0;entryDy=0;dashed=1;endArrow=none;endFill=0;startArrow=open;startFill=0;entryPerimeter=0;exitX=0.439;exitY=0;exitDx=0;exitDy=0;exitPerimeter=0;" parent="1" source="265" target="348" edge="1">
                    <mxGeometry relative="1" as="geometry">
                        <mxPoint x="645" y="60" as="targetPoint"/>
                        <mxPoint x="832" y="200" as="sourcePoint"/>
                    </mxGeometry>
                </mxCell>
                <mxCell id="356" value="" style="endArrow=classic;startArrow=classic;html=1;" parent="1" edge="1">
                    <mxGeometry width="50" height="50" relative="1" as="geometry">
                        <mxPoint x="-720" y="-200" as="sourcePoint"/>
                        <mxPoint x="-720" y="-280" as="targetPoint"/>
                    </mxGeometry>
                </mxCell>
                <mxCell id="357" value="Before development&lt;br&gt;begins" style="edgeLabel;html=1;align=center;verticalAlign=middle;resizable=0;points=[];" parent="356" vertex="1" connectable="0">
                    <mxGeometry x="0.052" y="-4" relative="1" as="geometry">
                        <mxPoint x="-4" y="3" as="offset"/>
                    </mxGeometry>
                </mxCell>
                <mxCell id="358" value="" style="shape=link;html=1;strokeColor=#33FF33;" parent="1" edge="1">
                    <mxGeometry width="100" relative="1" as="geometry">
                        <mxPoint x="-742.6700000000001" y="-300" as="sourcePoint"/>
                        <mxPoint x="3109.9968294270834" y="-299.8600000000001" as="targetPoint"/>
                    </mxGeometry>
                </mxCell>
                <mxCell id="360" style="edgeStyle=none;html=1;entryX=1;entryY=0.5;entryDx=0;entryDy=0;" parent="1" source="115" target="359" edge="1">
                    <mxGeometry relative="1" as="geometry"/>
                </mxCell>
                <mxCell id="366" style="edgeStyle=none;html=1;entryX=0.5;entryY=0;entryDx=0;entryDy=0;" parent="1" source="363" target="365" edge="1">
                    <mxGeometry relative="1" as="geometry"/>
                </mxCell>
                <mxCell id="369" value="System owners / manager" style="swimlane;whiteSpace=wrap;html=1;startSize=30;swimlaneFillColor=none;fillStyle=solid;fillColor=none;" parent="1" vertex="1">
                    <mxGeometry x="3110" y="200" width="200" height="10000" as="geometry"/>
                </mxCell>
                <mxCell id="370" value="&lt;div&gt;&lt;font color=&quot;#000000&quot;&gt;Hire hurman resources for testing, p33&lt;/font&gt;&lt;/div&gt;" style="rounded=1;whiteSpace=wrap;html=1;absoluteArcSize=1;arcSize=14;strokeWidth=2;" parent="369" vertex="1">
                    <mxGeometry x="25" y="530" width="150" height="70" as="geometry"/>
                </mxCell>
                <mxCell id="371" value="&lt;div&gt;&lt;font color=&quot;#000000&quot;&gt;Invest in security test training, p33&lt;/font&gt;&lt;/div&gt;" style="rounded=1;whiteSpace=wrap;html=1;absoluteArcSize=1;arcSize=14;strokeWidth=2;" parent="369" vertex="1">
                    <mxGeometry x="25" y="610" width="150" height="70" as="geometry"/>
                </mxCell>
                <mxCell id="439" value="Review system issues, p45" style="rounded=1;whiteSpace=wrap;html=1;" parent="369" vertex="1">
                    <mxGeometry x="40" y="8020" width="120" height="60" as="geometry"/>
                </mxCell>
                <mxCell id="476" value="&quot;[decide] what method is used and to what degree&quot;, p74" style="rounded=1;whiteSpace=wrap;html=1;" vertex="1" parent="369">
                    <mxGeometry x="50" y="4320" width="130" height="60" as="geometry"/>
                </mxCell>
                <mxCell id="478" value="&quot; The trade off as to what method&amp;nbsp;[path, dataflow, race] is used and to what degree each method is used should be negotiated with the application owner. Simpler approaches could also be adopted, including asking the application owner what functions&lt;br&gt; or code sections they are particularly concerned about and how those code segments can be reached.&quot;,p74" style="shape=note;whiteSpace=wrap;html=1;backgroundOutline=1;darkOpacity=0.05;align=left;fontSize=6;size=13;" vertex="1" parent="369">
                    <mxGeometry x="25" y="4407" width="125" height="73" as="geometry"/>
                </mxCell>
                <mxCell id="479" style="edgeStyle=none;html=1;dashed=1;endArrow=none;endFill=0;startArrow=open;startFill=0;entryX=0.44;entryY=1.027;entryDx=0;entryDy=0;entryPerimeter=0;" edge="1" parent="369" source="478" target="476">
                    <mxGeometry relative="1" as="geometry">
                        <mxPoint x="104" y="4380" as="targetPoint"/>
                    </mxGeometry>
                </mxCell>
                <mxCell id="373" style="edgeStyle=none;html=1;entryX=0;entryY=0.5;entryDx=0;entryDy=0;exitX=1;exitY=0.5;exitDx=0;exitDy=0;" parent="1" source="365" target="372" edge="1">
                    <mxGeometry relative="1" as="geometry">
                        <mxPoint x="1840" y="2160" as="sourcePoint"/>
                    </mxGeometry>
                </mxCell>
                <mxCell id="375" value="Yes" style="edgeLabel;html=1;align=center;verticalAlign=middle;resizable=0;points=[];" parent="373" vertex="1" connectable="0">
                    <mxGeometry x="-0.8402" y="-1" relative="1" as="geometry">
                        <mxPoint as="offset"/>
                    </mxGeometry>
                </mxCell>
                <mxCell id="374" style="edgeStyle=none;html=1;entryX=1;entryY=0.5;entryDx=0;entryDy=0;entryPerimeter=0;" parent="1" source="372" target="363" edge="1">
                    <mxGeometry relative="1" as="geometry"/>
                </mxCell>
                <mxCell id="388" style="edgeStyle=none;html=1;entryX=0;entryY=0.75;entryDx=0;entryDy=0;" parent="1" source="378" target="379" edge="1">
                    <mxGeometry relative="1" as="geometry"/>
                </mxCell>
                <mxCell id="390" style="edgeStyle=none;html=1;entryX=0.069;entryY=-0.023;entryDx=0;entryDy=0;entryPerimeter=0;exitX=0.483;exitY=0.905;exitDx=0;exitDy=0;exitPerimeter=0;" parent="1" source="363" target="91" edge="1">
                    <mxGeometry relative="1" as="geometry"/>
                </mxCell>
                <mxCell id="391" style="edgeStyle=none;html=1;entryX=-0.011;entryY=0.123;entryDx=0;entryDy=0;entryPerimeter=0;" parent="1" source="389" target="91" edge="1">
                    <mxGeometry relative="1" as="geometry"/>
                </mxCell>
                <mxCell id="392" style="edgeStyle=none;html=1;entryX=1;entryY=0.25;entryDx=0;entryDy=0;entryPerimeter=0;exitX=0.5;exitY=1;exitDx=0;exitDy=0;" parent="1" source="380" target="389" edge="1">
                    <mxGeometry relative="1" as="geometry"/>
                </mxCell>
                <mxCell id="393" value="No" style="edgeLabel;html=1;align=center;verticalAlign=middle;resizable=0;points=[];" parent="392" vertex="1" connectable="0">
                    <mxGeometry x="-0.789" y="4" relative="1" as="geometry">
                        <mxPoint as="offset"/>
                    </mxGeometry>
                </mxCell>
                <mxCell id="383" style="edgeStyle=none;html=1;exitX=0;exitY=0.5;exitDx=0;exitDy=0;entryX=0.876;entryY=0.959;entryDx=0;entryDy=0;entryPerimeter=0;" parent="1" source="380" target="372" edge="1">
                    <mxGeometry relative="1" as="geometry">
                        <mxPoint x="2447.5" y="2280" as="sourcePoint"/>
                        <mxPoint x="2270" y="2200" as="targetPoint"/>
                    </mxGeometry>
                </mxCell>
                <mxCell id="384" value="Yes" style="edgeLabel;html=1;align=center;verticalAlign=middle;resizable=0;points=[];" parent="383" vertex="1" connectable="0">
                    <mxGeometry x="-0.8402" y="-1" relative="1" as="geometry">
                        <mxPoint as="offset"/>
                    </mxGeometry>
                </mxCell>
                <mxCell id="395" style="edgeStyle=none;html=1;" parent="1" source="91" target="394" edge="1">
                    <mxGeometry relative="1" as="geometry"/>
                </mxCell>
                <mxCell id="396" style="edgeStyle=none;html=1;entryX=0.085;entryY=0.973;entryDx=0;entryDy=0;entryPerimeter=0;" parent="1" source="394" target="372" edge="1">
                    <mxGeometry relative="1" as="geometry"/>
                </mxCell>
                <mxCell id="397" value="No" style="edgeLabel;html=1;align=center;verticalAlign=middle;resizable=0;points=[];" parent="396" vertex="1" connectable="0">
                    <mxGeometry x="-0.9032" y="-1" relative="1" as="geometry">
                        <mxPoint y="1" as="offset"/>
                    </mxGeometry>
                </mxCell>
                <mxCell id="398" style="edgeStyle=none;html=1;entryX=0;entryY=0.5;entryDx=0;entryDy=0;entryPerimeter=0;" parent="1" source="394" target="92" edge="1">
                    <mxGeometry relative="1" as="geometry"/>
                </mxCell>
                <mxCell id="399" value="Yes" style="edgeLabel;html=1;align=center;verticalAlign=middle;resizable=0;points=[];" parent="398" vertex="1" connectable="0">
                    <mxGeometry x="-0.7471" relative="1" as="geometry">
                        <mxPoint as="offset"/>
                    </mxGeometry>
                </mxCell>
                <mxCell id="412" style="edgeStyle=none;html=1;entryX=1;entryY=0.5;entryDx=0;entryDy=0;" parent="1" source="405" target="413" edge="1">
                    <mxGeometry relative="1" as="geometry"/>
                </mxCell>
                <mxCell id="306" style="edgeStyle=none;html=1;" parent="1" source="300" target="305" edge="1">
                    <mxGeometry relative="1" as="geometry"/>
                </mxCell>
                <mxCell id="304" style="edgeStyle=none;html=1;entryX=0;entryY=0.5;entryDx=0;entryDy=0;entryPerimeter=0;" parent="1" source="300" target="303" edge="1">
                    <mxGeometry relative="1" as="geometry"/>
                </mxCell>
                <mxCell id="99" style="edgeStyle=none;html=1;entryX=0.572;entryY=0.879;entryDx=0;entryDy=0;dashed=1;endArrow=none;endFill=0;startArrow=open;startFill=0;entryPerimeter=0;" parent="1" source="96" target="97" edge="1">
                    <mxGeometry relative="1" as="geometry">
                        <mxPoint x="2145" y="3168.86" as="targetPoint"/>
                    </mxGeometry>
                </mxCell>
                <mxCell id="104" style="edgeStyle=none;html=1;entryX=1;entryY=0.5;entryDx=0;entryDy=0;entryPerimeter=0;" parent="1" source="98" target="97" edge="1">
                    <mxGeometry relative="1" as="geometry"/>
                </mxCell>
                <mxCell id="87" value="" style="edgeStyle=none;html=1;" parent="1" source="63" target="81" edge="1">
                    <mxGeometry relative="1" as="geometry"/>
                </mxCell>
                <mxCell id="86" value="" style="edgeStyle=none;html=1;" parent="1" source="63" target="85" edge="1">
                    <mxGeometry relative="1" as="geometry"/>
                </mxCell>
                <mxCell id="88" style="edgeStyle=none;html=1;entryX=0.022;entryY=0.861;entryDx=0;entryDy=0;entryPerimeter=0;" parent="1" source="63" target="80" edge="1">
                    <mxGeometry relative="1" as="geometry"/>
                </mxCell>
                <mxCell id="438" style="edgeStyle=none;html=1;entryX=0.004;entryY=0.374;entryDx=0;entryDy=0;entryPerimeter=0;" parent="1" source="434" target="437" edge="1">
                    <mxGeometry relative="1" as="geometry"/>
                </mxCell>
                <mxCell id="440" style="edgeStyle=none;html=1;entryX=0;entryY=0.5;entryDx=0;entryDy=0;" parent="1" source="437" target="439" edge="1">
                    <mxGeometry relative="1" as="geometry"/>
                </mxCell>
                <mxCell id="449" style="edgeStyle=none;html=1;entryX=0;entryY=0.5;entryDx=0;entryDy=0;" edge="1" parent="1" source="448" target="447">
                    <mxGeometry relative="1" as="geometry"/>
                </mxCell>
                <mxCell id="453" value="&quot; if the web server is mis-configured and allows directory browsing, it may be possible to spot these applications.&lt;br&gt; Vulnerability scanners may help in this respect.  these applications may be referenced by other web pages and there is a chance that they have been spidered&lt;br/&gt; and indexed by web search engines. If testers suspect the existence of such hidden applications on &lt;br/&gt;www.example.com&lt;br/&gt; they could search using the site operator and examining the result of a query for &lt;br/&gt;site: www.example.com . Among the&lt;br/&gt; returned URLs there could be one pointing to such a non-obvious application.&quot;,p61" style="shape=note;whiteSpace=wrap;html=1;backgroundOutline=1;darkOpacity=0.05;fontSize=6;" vertex="1" parent="1">
                    <mxGeometry x="1740" y="8770" width="150" height="180" as="geometry"/>
                </mxCell>
                <mxCell id="454" style="edgeStyle=none;html=1;dashed=1;endArrow=none;endFill=0;startArrow=open;startFill=0;entryX=0.416;entryY=0.997;entryDx=0;entryDy=0;entryPerimeter=0;" edge="1" parent="1" source="453" target="450">
                    <mxGeometry relative="1" as="geometry">
                        <mxPoint x="1820" y="9080" as="targetPoint"/>
                        <mxPoint x="1850" y="8470" as="sourcePoint"/>
                    </mxGeometry>
                </mxCell>
                <mxCell id="463" style="edgeStyle=none;html=1;entryX=0;entryY=0.5;entryDx=0;entryDy=0;entryPerimeter=0;" edge="1" parent="1" source="461" target="462">
                    <mxGeometry relative="1" as="geometry"/>
                </mxCell>
                <mxCell id="470" style="edgeStyle=none;html=1;entryX=1;entryY=0.5;entryDx=0;entryDy=0;" edge="1" parent="1" source="462" target="469">
                    <mxGeometry relative="1" as="geometry"/>
                </mxCell>
                <mxCell id="475" style="edgeStyle=none;html=1;entryX=0;entryY=0.5;entryDx=0;entryDy=0;" edge="1" parent="1" source="43" target="474">
                    <mxGeometry relative="1" as="geometry"/>
                </mxCell>
                <mxCell id="477" style="edgeStyle=none;html=1;" edge="1" parent="1" source="474" target="476">
                    <mxGeometry relative="1" as="geometry"/>
                </mxCell>
            </root>
        </mxGraphModel>
    </diagram>
</mxfile>